<svg width="130" height="130" viewBox="0 0 130 130" fill="none" xmlns="http://www.w3.org/2000/svg">
<g clip-path="url(#clip0_771_14085)">
<path fill-rule="evenodd" clip-rule="evenodd" d="M106.184 114.713L65.156 73.2172L23.556 115.025C31.824 120.537 44.772 129.949 64.74 130.053C84.708 130.157 100.724 120.225 106.132 114.765L106.184 114.713ZM114.712 23.4012L73.112 64.8972C87.048 78.7812 100.776 92.8212 114.556 106.809C136.136 79.2492 134.16 50.8572 114.712 23.3492V23.4012ZM15.08 106.185L51.116 10.2452L0.572013 61.1012C-2.02799 75.9212 5.66801 94.7452 15.08 106.185ZM34.06 87.3092C36.66 86.6332 93.964 27.7692 106.288 15.5492C99.892 7.02119 77.948 -0.362806 66.976 0.00119366L34.06 87.3092Z" fill="#E3D8FC"/>
</g>
<defs>
<clipPath id="clip0_771_14085">
<rect width="130" height="130" fill="white"/>
</clipPath>
</defs>
</svg>
