<svg width="24" height="24" viewBox="0 0 24 24" fill="none" xmlns="http://www.w3.org/2000/svg">
<path d="M15.0501 11.3901C15.5392 10.8401 15.8034 10.1261 15.7901 9.39012C15.7901 8.59447 15.474 7.83141 14.9114 7.2688C14.3488 6.70619 13.5858 6.39012 12.7901 6.39012H8.00012C7.80121 6.39012 7.61044 6.46914 7.46979 6.60979C7.32914 6.75044 7.25012 6.94121 7.25012 7.14012V16.7801C7.25012 16.979 7.32914 17.1698 7.46979 17.3104C7.61044 17.4511 7.80121 17.5301 8.00012 17.5301H13.4001C14.132 17.5343 14.8446 17.2951 15.4256 16.8501C16.0067 16.4051 16.4233 15.7795 16.61 15.0718C16.7967 14.3641 16.7428 13.6144 16.4568 12.9407C16.1708 12.2669 15.6689 11.7074 15.0301 11.3501L15.0501 11.3901ZM8.77012 7.93012H12.7701C13.1381 7.97268 13.4776 8.14902 13.724 8.4256C13.9705 8.70217 14.1066 9.05969 14.1066 9.43012C14.1066 9.80056 13.9705 10.1581 13.724 10.4346C13.4776 10.7112 13.1381 10.8876 12.7701 10.9301H8.77012V7.93012ZM13.4201 16.0701H8.77012V12.4501H13.4201C13.9002 12.4501 14.3605 12.6408 14.7 12.9803C15.0394 13.3197 15.2301 13.7801 15.2301 14.2601C15.2301 14.7402 15.0394 15.2005 14.7 15.54C14.3605 15.8794 13.9002 16.0701 13.4201 16.0701ZM16.0501 1.25012H8.00012C7.11221 1.24481 6.23208 1.41578 5.41074 1.75312C4.58939 2.09046 3.84317 2.58746 3.21531 3.21531C2.58746 3.84317 2.09046 4.58939 1.75312 5.41074C1.41578 6.23208 1.24481 7.11221 1.25012 8.00012V16.1001C1.26597 17.8763 1.9854 19.5736 3.25071 20.8202C4.51601 22.0668 6.22395 22.7608 8.00012 22.7501H16.1001C17.8763 22.7475 19.5789 22.0407 20.8348 20.7848C22.0907 19.5289 22.7975 17.8263 22.8001 16.0501V8.00012C22.8054 7.11221 22.6345 6.23208 22.2971 5.41074C21.9598 4.58939 21.4628 3.84317 20.8349 3.21531C20.2071 2.58746 19.4608 2.09046 18.6395 1.75312C17.8182 1.41578 16.938 1.24481 16.0501 1.25012ZM21.2501 16.0501C21.2475 17.4284 20.6988 18.7495 19.7242 19.7242C18.7495 20.6988 17.4284 21.2475 16.0501 21.2501H8.00012C6.62181 21.2475 5.3007 20.6988 4.32608 19.7242C3.35147 18.7495 2.80276 17.4284 2.80012 16.0501V8.00012C2.79485 7.31342 2.92538 6.63244 3.18422 5.99637C3.44306 5.36029 3.8251 4.78166 4.30836 4.29375C4.79161 3.80585 5.36656 3.41829 6.00013 3.15338C6.6337 2.88846 7.3134 2.75142 8.00012 2.75012H16.1001C17.4784 2.76595 18.7943 3.32734 19.7596 4.31134C20.7248 5.29534 21.2608 6.62176 21.2501 8.00012V16.0501Z" fill="#566B87"/>
</svg>
