<svg width="24" height="24" viewBox="0 0 24 24" fill="none" xmlns="http://www.w3.org/2000/svg">
<path d="M16.0501 1.25012H8.00012C7.11221 1.24481 6.23208 1.41578 5.41074 1.75312C4.58939 2.09046 3.84317 2.58746 3.21531 3.21531C2.58746 3.84317 2.09046 4.58939 1.75312 5.41074C1.41578 6.23208 1.24481 7.11221 1.25012 8.00012V16.1001C1.26597 17.8763 1.9854 19.5736 3.25071 20.8202C4.51601 22.0668 6.22395 22.7608 8.00012 22.7501H16.1001C17.8763 22.7475 19.5789 22.0407 20.8348 20.7848C22.0907 19.5289 22.7975 17.8263 22.8001 16.0501V8.00012C22.8054 7.11221 22.6345 6.23208 22.2971 5.41074C21.9598 4.58939 21.4628 3.84317 20.8349 3.21531C20.2071 2.58746 19.4608 2.09046 18.6395 1.75312C17.8182 1.41578 16.938 1.24481 16.0501 1.25012ZM21.2501 16.0501C21.2475 17.4284 20.6988 18.7495 19.7242 19.7242C18.7495 20.6988 17.4284 21.2475 16.0501 21.2501H8.00012C6.62181 21.2475 5.3007 20.6988 4.32608 19.7242C3.35147 18.7495 2.80276 17.4284 2.80012 16.0501V8.00012C2.79485 7.31342 2.92538 6.63244 3.18422 5.99637C3.44306 5.36029 3.8251 4.78166 4.30836 4.29375C4.79161 3.80585 5.36656 3.41829 6.00013 3.15338C6.6337 2.88846 7.3134 2.75142 8.00012 2.75012H16.1001C17.4784 2.76595 18.7943 3.32734 19.7596 4.31134C20.7248 5.29534 21.2608 6.62176 21.2501 8.00012V16.0501ZM18.5401 12.7501C18.5401 12.949 18.4611 13.1398 18.3204 13.2804C18.1798 13.4211 17.989 13.5001 17.7901 13.5001H15.2001C15.2716 13.7472 15.3087 14.0029 15.3101 14.2601C15.3101 15.0558 14.994 15.8188 14.4314 16.3814C13.8688 16.944 13.1058 17.2601 12.3101 17.2601H9.31012C9.11121 17.2601 8.92044 17.1811 8.77979 17.0405C8.63914 16.8998 8.56012 16.709 8.56012 16.5101C8.56012 16.3112 8.63914 16.1204 8.77979 15.9798C8.92044 15.8391 9.11121 15.7601 9.31012 15.7601H12.3101C12.575 15.7613 12.8354 15.6924 13.065 15.5603C13.2946 15.4282 13.4851 15.2376 13.6172 15.0081C13.7492 14.7785 13.8181 14.518 13.8169 14.2531C13.8157 13.9883 13.7443 13.7285 13.6101 13.5001H6.21012C6.01121 13.5001 5.82044 13.4211 5.67979 13.2804C5.53914 13.1398 5.46012 12.949 5.46012 12.7501C5.46012 12.5512 5.53914 12.3604 5.67979 12.2198C5.82044 12.0791 6.01121 12.0001 6.21012 12.0001H8.67012C8.34155 11.7216 8.07681 11.3756 7.8939 10.9856C7.71099 10.5956 7.6142 10.1708 7.61012 9.74012C7.61012 8.94447 7.92619 8.18141 8.4888 7.6188C9.05141 7.05619 9.81447 6.74012 10.6101 6.74012H13.6101C13.809 6.74012 13.9998 6.81914 14.1405 6.95979C14.2811 7.10044 14.3601 7.29121 14.3601 7.49012C14.3601 7.68903 14.2811 7.8798 14.1405 8.02045C13.9998 8.1611 13.809 8.24012 13.6101 8.24012H10.6101C10.3986 8.21565 10.1843 8.2362 9.98126 8.30042C9.77824 8.36463 9.59109 8.47106 9.43211 8.61272C9.27312 8.75437 9.1459 8.92805 9.05878 9.12235C8.97166 9.31665 8.92663 9.52718 8.92663 9.74012C8.92663 9.95306 8.97166 10.1636 9.05878 10.3579C9.1459 10.5522 9.27312 10.7259 9.43211 10.8675C9.59109 11.0092 9.77824 11.1156 9.98126 11.1798C10.1843 11.244 10.3986 11.2646 10.6101 11.2401H12.3001C13.0362 11.2363 13.748 11.5032 14.3001 11.9901H17.8201C18.0147 12.0004 18.1979 12.0849 18.3318 12.2264C18.4658 12.3678 18.5404 12.5553 18.5401 12.7501Z" fill="#566B87"/>
</svg>
