<svg width="24" height="24" viewBox="0 0 24 24" fill="none" xmlns="http://www.w3.org/2000/svg">
<path d="M16.0498 1.00012H7.9998C6.22367 1.00277 4.52103 1.70951 3.26511 2.96543C2.00919 4.22135 1.30245 5.92398 1.2998 7.70012V15.8001C1.31561 17.5676 2.02815 19.2574 3.28265 20.5026C4.53715 21.7477 6.23228 22.4476 7.9998 22.4501H16.0998C17.8759 22.4475 19.5786 21.7407 20.8345 20.4848C22.0904 19.2289 22.7972 17.5263 22.7998 15.7501V7.65012C22.784 5.87399 22.0645 4.1766 20.7992 2.93004C19.5339 1.68348 17.826 0.989462 16.0498 1.00012ZM21.2498 15.8001C21.2445 17.1776 20.695 18.4972 19.7209 19.4713C18.7469 20.4453 17.4273 20.9949 16.0498 21.0001H7.9998C6.6223 20.9949 5.30272 20.4453 4.32867 19.4713C3.35462 18.4972 2.80507 17.1776 2.7998 15.8001V7.65012C2.80245 6.27181 3.35115 4.9507 4.32577 3.97608C5.30039 3.00147 6.62149 2.45276 7.9998 2.45012H16.0998C17.4781 2.45276 18.7992 3.00147 19.7738 3.97608C20.7485 4.9507 21.2972 6.27181 21.2998 7.65012L21.2498 15.8001ZM15.9998 7.18012C15.9998 7.37903 15.9208 7.5698 15.7801 7.71045C15.6395 7.8511 15.4487 7.93012 15.2498 7.93012H13.4298L12.0898 16.0701H13.8398C14.0387 16.0701 14.2295 16.1491 14.3701 16.2898C14.5108 16.4304 14.5898 16.6212 14.5898 16.8201C14.5898 17.019 14.5108 17.2098 14.3701 17.3505C14.2295 17.4911 14.0387 17.5701 13.8398 17.5701H8.8998C8.70089 17.5701 8.51013 17.4911 8.36947 17.3505C8.22882 17.2098 8.1498 17.019 8.1498 16.8201C8.1498 16.6212 8.22882 16.4304 8.36947 16.2898C8.51013 16.1491 8.70089 16.0701 8.8998 16.0701H10.5698L11.9098 7.93012H10.3198C10.1209 7.93012 9.93013 7.8511 9.78947 7.71045C9.64882 7.5698 9.5698 7.37903 9.5698 7.18012C9.5698 6.98121 9.64882 6.79044 9.78947 6.64979C9.93013 6.50914 10.1209 6.43012 10.3198 6.43012H15.2598C15.4562 6.43527 15.6429 6.51625 15.7809 6.65608C15.9188 6.7959 15.9973 6.98371 15.9998 7.18012Z" fill="#566B87"/>
</svg>
