<svg width="10" height="6" viewBox="0 0 10 6" fill="none" xmlns="http://www.w3.org/2000/svg">
<path d="M4.92688 5.49329C4.83914 5.49379 4.75217 5.47698 4.67094 5.4438C4.58972 5.41062 4.51584 5.36174 4.45355 5.29995L0.453547 1.29995C0.391061 1.23798 0.341465 1.16424 0.307619 1.083C0.273773 1.00176 0.256348 0.914627 0.256348 0.826619C0.256348 0.738611 0.273773 0.651474 0.307619 0.570234C0.341465 0.488995 0.391061 0.415261 0.453547 0.353285C0.578455 0.229118 0.747423 0.159424 0.923547 0.159424C1.09967 0.159424 1.26864 0.229118 1.39355 0.353285L4.92688 3.88662L8.45355 0.353285C8.57846 0.229118 8.74742 0.159424 8.92355 0.159424C9.09967 0.159424 9.26864 0.229118 9.39355 0.353285C9.45603 0.415261 9.50563 0.488995 9.53947 0.570234C9.57332 0.651474 9.59075 0.738611 9.59075 0.826619C9.59075 0.914627 9.57332 1.00176 9.53947 1.083C9.50563 1.16424 9.45603 1.23798 9.39355 1.29995L5.39355 5.29995C5.26937 5.42312 5.10177 5.49255 4.92688 5.49329Z" fill="#031D3C"/>
</svg>
