<svg width="24" height="24" viewBox="0 0 24 24" fill="none" xmlns="http://www.w3.org/2000/svg">
<path d="M11.33 22.75H6.89C5.6192 22.7878 4.38512 22.3209 3.45755 21.4514C2.52998 20.5819 1.98437 19.3806 1.94 18.11V5.89001C1.98437 4.61941 2.52998 3.41806 3.45755 2.54859C4.38512 1.67911 5.6192 1.21223 6.89 1.25001H11.33C12.5998 1.21227 13.8328 1.67946 14.7588 2.5492C15.6848 3.41895 16.2282 4.6203 16.27 5.89001C16.27 6.09157 16.1899 6.28488 16.0474 6.42741C15.9049 6.56993 15.7116 6.65001 15.51 6.65001C15.3084 6.65001 15.1151 6.56993 14.9726 6.42741C14.8301 6.28488 14.75 6.09157 14.75 5.89001C14.7059 5.02429 14.322 4.21094 13.6816 3.62672C13.0412 3.04251 12.1961 2.73463 11.33 2.77001H6.89C6.0232 2.73198 5.17664 3.03895 4.53565 3.6237C3.89467 4.20846 3.51149 5.02336 3.47 5.89001V18.11C3.51149 18.9767 3.89467 19.7916 4.53565 20.3763C5.17664 20.9611 6.0232 21.268 6.89 21.23H11.33C12.1961 21.2654 13.0412 20.9575 13.6816 20.3733C14.322 19.7891 14.7059 18.9757 14.75 18.11C14.75 17.9084 14.8301 17.7151 14.9726 17.5726C15.1151 17.4301 15.3084 17.35 15.51 17.35C15.7116 17.35 15.9049 17.4301 16.0474 17.5726C16.1899 17.7151 16.27 17.9084 16.27 18.11C16.2282 19.3797 15.6848 20.5811 14.7588 21.4508C13.8328 22.3206 12.5998 22.7877 11.33 22.75V22.75ZM7.88 12C7.88 12.0998 7.89966 12.1986 7.93785 12.2908C7.97605 12.3831 8.03203 12.4668 8.1026 12.5374C8.17317 12.608 8.25696 12.664 8.34916 12.7022C8.44137 12.7403 8.5402 12.76 8.64 12.76H18.71L17 14.43C16.9286 14.5007 16.872 14.5848 16.8333 14.6775C16.7947 14.7702 16.7748 14.8696 16.7748 14.97C16.7748 15.0704 16.7947 15.1699 16.8333 15.2625C16.872 15.3552 16.9286 15.4393 17 15.51C17.0708 15.5809 17.155 15.6368 17.2477 15.6746C17.3405 15.7124 17.4399 15.7312 17.54 15.73C17.6386 15.731 17.7364 15.7121 17.8275 15.6743C17.9186 15.6365 18.0011 15.5806 18.07 15.51L21.07 12.51C21.1414 12.4393 21.198 12.3552 21.2367 12.2625C21.2753 12.1699 21.2952 12.0704 21.2952 11.97C21.2952 11.8696 21.2753 11.7702 21.2367 11.6775C21.198 11.5848 21.1414 11.5007 21.07 11.43L18.07 8.43001C18.0002 8.35895 17.9169 8.30252 17.8251 8.26399C17.7332 8.22547 17.6346 8.20562 17.535 8.20562C17.4354 8.20562 17.3368 8.22547 17.2449 8.26399C17.1531 8.30252 17.0698 8.35895 17 8.43001C16.9286 8.50067 16.872 8.58478 16.8333 8.67747C16.7947 8.77015 16.7748 8.86958 16.7748 8.97001C16.7748 9.07043 16.7947 9.16986 16.8333 9.26255C16.872 9.35523 16.9286 9.43934 17 9.51001L18.67 11.18H8.64C8.53494 11.1797 8.43095 11.2011 8.33461 11.243C8.23826 11.2849 8.15164 11.3463 8.08022 11.4234C8.00881 11.5004 7.95414 11.5915 7.91968 11.6907C7.88522 11.79 7.87171 11.8953 7.88 12V12Z" fill="url(#paint0_linear_1_10)"/>
<defs>
<linearGradient id="paint0_linear_1_10" x1="1.94" y1="1.24788" x2="23.0188" y2="3.07334" gradientUnits="userSpaceOnUse">
<stop stop-color="#A07AF7"/>
<stop offset="1" stop-color="#55A0F0"/>
</linearGradient>
</defs>
</svg>
