<svg width="24" height="24" viewBox="0 0 24 24" fill="none" xmlns="http://www.w3.org/2000/svg">
<path d="M18.5998 10.1701C18.5132 10.1251 18.4186 10.0977 18.3213 10.0895C18.2241 10.0812 18.1262 10.0923 18.0332 10.122C17.9403 10.1518 17.8541 10.1996 17.7798 10.2628C17.7054 10.326 17.6442 10.4032 17.5998 10.4901L13.6998 18.0001C13.1981 19.0018 12.3431 19.782 11.2998 20.1901C10.8303 20.3642 10.3293 20.4373 9.82955 20.4045C9.32983 20.3718 8.84265 20.234 8.39982 20.0001C7.95745 19.7656 7.57054 19.439 7.26519 19.0422C6.95985 18.6454 6.74318 18.1878 6.62982 17.7001C6.3588 16.624 6.49039 15.486 6.99982 14.5001L9.61982 9.50011L11.7898 5.33011C12.1344 4.63654 12.7268 4.09764 13.4498 3.82011C13.7692 3.68807 14.1133 3.62685 14.4586 3.64066C14.8039 3.65447 15.1421 3.74299 15.4498 3.90011C15.749 4.06265 16.0106 4.28651 16.2174 4.55705C16.4242 4.82759 16.5715 5.13872 16.6498 5.47011C16.8368 6.22242 16.7369 7.01737 16.3698 7.70011L14.1798 11.9201L12.6298 14.9201C12.449 15.2795 12.1432 15.5604 11.7698 15.7101C11.6135 15.784 11.4427 15.8223 11.2698 15.8223C11.0969 15.8223 10.9261 15.784 10.7698 15.7101C10.456 15.5123 10.2328 15.1988 10.1486 14.8375C10.0643 14.4762 10.1259 14.0963 10.3198 13.7801L13.1298 8.37011C13.2104 8.19499 13.2205 7.99554 13.158 7.81318C13.0954 7.63081 12.9651 7.47954 12.7939 7.39076C12.6228 7.30197 12.424 7.2825 12.2389 7.33638C12.0538 7.39026 11.8966 7.51336 11.7998 7.68011L8.99982 13.0001C8.80586 13.3336 8.68014 13.7023 8.62999 14.0848C8.57983 14.4674 8.60624 14.856 8.70767 15.2282C8.8091 15.6005 8.98353 15.9488 9.22081 16.253C9.45809 16.5572 9.75349 16.8111 10.0898 17.0001C10.4585 17.1987 10.8711 17.3018 11.2898 17.3001C11.6322 17.3012 11.9717 17.2367 12.2898 17.1101C13.0382 16.8277 13.6501 16.2695 13.9998 15.5501L15.8798 11.9201L17.7298 8.35011C18.2686 7.33826 18.4146 6.16305 18.1398 5.05011C18.0105 4.51657 17.7685 4.01686 17.4302 3.58451C17.0919 3.15216 16.665 2.79717 16.1782 2.54335C15.6914 2.28954 15.1559 2.14276 14.6077 2.11288C14.0596 2.08301 13.5113 2.17071 12.9998 2.37011C11.9119 2.77447 11.0135 3.56946 10.4798 4.60011L9.31982 6.83011L5.69982 13.8301C4.99966 15.1459 4.8143 16.6752 5.17982 18.1201C5.34654 18.8104 5.6584 19.4573 6.09464 20.0177C6.53088 20.5781 7.08149 21.0391 7.70982 21.3701C8.41912 21.7292 9.20488 21.9111 9.99982 21.9001C10.639 21.8955 11.2722 21.7769 11.8698 21.5501C13.228 20.9966 14.3399 19.97 14.9998 18.6601L18.8798 11.1801C18.9743 11.0085 18.9978 10.8068 18.9455 10.6181C18.8932 10.4294 18.7691 10.2686 18.5998 10.1701Z" fill="#7E5BE3"/>
</svg>
