<svg width="24" height="24" viewBox="0 0 24 24" fill="none" xmlns="http://www.w3.org/2000/svg">
<path d="M16.3201 11H6.86005L11.0901 6.77004C11.2191 6.57566 11.2762 6.34225 11.2513 6.11023C11.2265 5.87822 11.1212 5.6622 10.9539 5.49959C10.7865 5.33698 10.5676 5.23802 10.3349 5.21984C10.1023 5.20166 9.87064 5.2654 9.68005 5.40004L3.74005 11.34C3.58289 11.5238 3.49763 11.7583 3.50005 12C3.50031 12.1341 3.52751 12.2667 3.58005 12.39C3.62879 12.5092 3.7001 12.6179 3.79005 12.71L9.73005 18.65C9.91835 18.837 10.1732 18.9415 10.4386 18.9406C10.7039 18.9397 10.9581 18.8333 11.1451 18.645C11.332 18.4567 11.4365 18.2019 11.4356 17.9365C11.4347 17.6711 11.3284 17.417 11.1401 17.23L6.86005 13H16.3201C16.5853 13 16.8396 12.8947 17.0272 12.7071C17.2147 12.5196 17.3201 12.2653 17.3201 12C17.3201 11.7348 17.2147 11.4805 17.0272 11.2929C16.8396 11.1054 16.5853 11 16.3201 11Z" fill="#031D3C"/>
<rect x="15.5" y="11" width="5" height="2" rx="1" fill="#031D3C"/>
</svg>
