<svg width="12" height="12" viewBox="0 0 12 12" fill="none" xmlns="http://www.w3.org/2000/svg">
<path d="M7.76676 6.0001L11.6001 2.16676C12.0834 1.68343 12.0834 0.883431 11.6001 0.400098C11.1168 -0.0832357 10.3168 -0.0832357 9.83343 0.400098L6.0001 4.23343L2.16676 0.400098C1.68343 -0.0832357 0.883431 -0.0832357 0.400098 0.400098C-0.0832357 0.883431 -0.0832357 1.68343 0.400098 2.16676L4.23343 6.0001L0.400098 9.83343C-0.0832357 10.3168 -0.0832357 11.1168 0.400098 11.6001C0.650098 11.8501 0.966764 11.9668 1.28343 11.9668C1.6001 11.9668 1.91676 11.8501 2.16676 11.6001L6.0001 7.76676L9.83343 11.6001C10.0834 11.8501 10.4001 11.9668 10.7168 11.9668C11.0334 11.9668 11.3501 11.8501 11.6001 11.6001C12.0834 11.1168 12.0834 10.3168 11.6001 9.83343L7.76676 6.0001Z" fill="#566B87"/>
</svg>
