<svg width="20" height="20" viewBox="0 0 20 20" fill="none" xmlns="http://www.w3.org/2000/svg">
<path d="M14.0167 18.9587H2.50008C2.11465 18.9543 1.74623 18.7993 1.47367 18.5267C1.20112 18.2542 1.04608 17.8858 1.04175 17.5003V5.98366C1.04395 4.67372 1.5653 3.41807 2.49156 2.49181C3.41783 1.56554 4.67348 1.0442 5.98341 1.04199H14.0167C15.3267 1.0442 16.5823 1.56554 17.5086 2.49181C18.4349 3.41807 18.9562 4.67372 18.9584 5.98366V14.017C18.9562 15.3269 18.4349 16.5826 17.5086 17.5088C16.5823 18.4351 15.3267 18.9565 14.0167 18.9587ZM5.98341 2.29199C5.005 2.29419 4.06729 2.68384 3.37544 3.37569C2.6836 4.06753 2.29395 5.00524 2.29175 5.98366V17.5003C2.29175 17.56 2.31545 17.6172 2.35765 17.6594C2.39984 17.7016 2.45707 17.7253 2.51675 17.7253H14.0167C14.9952 17.7231 15.9329 17.3335 16.6247 16.6416C17.3166 15.9498 17.7062 15.0121 17.7084 14.0337V5.98366C17.7062 5.00524 17.3166 4.06753 16.6247 3.37569C15.9329 2.68384 14.9952 2.29419 14.0167 2.29199H5.98341ZM14.5917 7.91699C14.5896 7.7519 14.523 7.59418 14.4063 7.47744C14.2896 7.36069 14.1318 7.29415 13.9667 7.29199H6.03341C5.86765 7.29199 5.70868 7.35784 5.59147 7.47505C5.47426 7.59226 5.40841 7.75123 5.40841 7.91699C5.40841 8.08275 5.47426 8.24172 5.59147 8.35893C5.70868 8.47614 5.86765 8.54199 6.03341 8.54199H13.9667C14.1318 8.53983 14.2896 8.47329 14.4063 8.35655C14.523 8.2398 14.5896 8.08208 14.5917 7.91699ZM11.9501 12.0837C11.9479 11.9186 11.8814 11.7608 11.7646 11.6441C11.6479 11.5274 11.4902 11.4608 11.3251 11.4587H6.03341C5.86765 11.4587 5.70868 11.5245 5.59147 11.6417C5.47426 11.7589 5.40841 11.9179 5.40841 12.0837C5.40841 12.2494 5.47426 12.4084 5.59147 12.5256C5.70868 12.6428 5.86765 12.7087 6.03341 12.7087H11.3251C11.4902 12.7065 11.6479 12.64 11.7646 12.5232C11.8814 12.4065 11.9479 12.2487 11.9501 12.0837Z" fill="#566B87"/>
</svg>
