<svg width="14" height="14" viewBox="0 0 14 14" fill="none" xmlns="http://www.w3.org/2000/svg">
<path d="M13.4985 4.68813L9.33291 4.08274L7.4708 0.307662C7.41994 0.204303 7.33627 0.120631 7.23291 0.0697717C6.97369 -0.0581971 6.65869 0.0484436 6.52908 0.307662L4.66697 4.08274L0.501424 4.68813C0.38658 4.70454 0.28158 4.75868 0.201189 4.84071C0.104001 4.9406 0.0504465 5.07499 0.0522923 5.21435C0.0541381 5.35371 0.111234 5.48663 0.211033 5.58391L3.22486 8.52227L2.51283 12.6714C2.49613 12.7679 2.50681 12.8672 2.54366 12.958C2.58051 13.0487 2.64205 13.1273 2.7213 13.1849C2.80056 13.2424 2.89435 13.2767 2.99206 13.2836C3.08976 13.2906 3.18746 13.27 3.27408 13.2243L6.99994 11.2654L10.7258 13.2243C10.8275 13.2784 10.9456 13.2965 11.0588 13.2768C11.3443 13.2276 11.5363 12.9569 11.487 12.6714L10.775 8.52227L13.7888 5.58391C13.8709 5.50352 13.925 5.39852 13.9414 5.28368C13.9857 4.99657 13.7856 4.73079 13.4985 4.68813Z" fill="#FFD166"/>
</svg>
