<svg width="20" height="20" viewBox="0 0 20 20" fill="none" xmlns="http://www.w3.org/2000/svg">
<path d="M12.6253 9.8799C12.3078 9.66734 11.9597 9.50026 11.592 9.3839C11.3003 9.2879 10.9753 9.1999 10.6337 9.1119V6.9359C10.7418 6.97022 10.8432 7.02159 10.9337 7.0879C11.179 7.29815 11.3775 7.55397 11.517 7.8399C11.6076 8.01651 11.7225 8.18064 11.8587 8.3279C11.9921 8.43228 12.162 8.48379 12.3337 8.4719C12.4406 8.47401 12.5468 8.45361 12.6447 8.41215C12.7426 8.37069 12.8298 8.30917 12.9003 8.2319C13.0482 8.08034 13.1289 7.87953 13.1253 7.6719C13.123 7.43173 13.0601 7.19567 12.942 6.9839C12.8041 6.7198 12.6079 6.48775 12.367 6.3039C12.0753 6.06965 11.7383 5.89294 11.3753 5.7839C11.1436 5.69941 10.9034 5.63776 10.6587 5.5999V5.1999C10.6598 5.12044 10.6444 5.04156 10.6135 4.96783C10.5826 4.89411 10.5367 4.82702 10.4786 4.77046C10.4204 4.71389 10.3512 4.66898 10.2748 4.63833C10.1984 4.60768 10.1164 4.5919 10.0337 4.5919C9.95198 4.59084 9.8709 4.60537 9.79512 4.63465C9.71933 4.66392 9.65036 4.70736 9.59222 4.76244C9.53407 4.81752 9.4879 4.88314 9.45639 4.95549C9.42488 5.02784 9.40866 5.10548 9.40866 5.1839V5.5999C8.99568 5.62717 8.58883 5.71067 8.20033 5.8479C7.7307 6.02253 7.32696 6.32926 7.042 6.7279C6.77734 7.10197 6.6458 7.54817 6.667 7.9999C6.65066 8.43861 6.78217 8.87067 7.042 9.2319C7.30277 9.58197 7.65679 9.85828 8.067 10.0319C8.49679 10.2126 8.94315 10.3546 9.40033 10.4559V13.1039C9.28586 13.0801 9.17418 13.0452 9.067 12.9999C8.84447 12.8946 8.65263 12.7379 8.50866 12.5439C8.36459 12.3287 8.24183 12.1011 8.142 11.8639C8.07391 11.6683 7.95986 11.4904 7.80866 11.3439C7.67558 11.2311 7.5028 11.171 7.32533 11.1759C7.21839 11.1717 7.11174 11.1895 7.01257 11.2281C6.91339 11.2668 6.82397 11.3253 6.75033 11.3999C6.67438 11.4685 6.61434 11.5517 6.57413 11.644C6.53393 11.7364 6.51446 11.8358 6.517 11.9359C6.53301 12.3339 6.6659 12.7193 6.90033 13.0479C7.13726 13.408 7.45642 13.7117 7.83366 13.9359C8.29963 14.1804 8.81308 14.3302 9.342 14.3759V14.7679C9.34089 14.8474 9.35624 14.9262 9.38716 15C9.41807 15.0737 9.46393 15.1408 9.52208 15.1973C9.58023 15.2539 9.6495 15.2988 9.72588 15.3295C9.80226 15.3601 9.88421 15.3759 9.967 15.3759C10.0487 15.377 10.1298 15.3624 10.2055 15.3332C10.2813 15.3039 10.3503 15.2604 10.4084 15.2054C10.4666 15.1503 10.5128 15.0847 10.5443 15.0123C10.5758 14.94 10.592 14.8623 10.592 14.7839V14.3999C11.0412 14.3656 11.4824 14.2658 11.9003 14.1039C12.395 13.9012 12.8177 13.5649 13.117 13.1359C13.3943 12.7208 13.5392 12.237 13.5337 11.7439C13.5647 11.3578 13.496 10.9704 13.3337 10.6159C13.1655 10.3175 12.922 10.0644 12.6253 9.8799ZM9.367 8.7999C9.18912 8.7443 9.01631 8.67473 8.85033 8.5919C8.69818 8.50899 8.56272 8.40062 8.45033 8.2719C8.3648 8.13453 8.32416 7.97568 8.33366 7.8159C8.33734 7.67376 8.3782 7.53479 8.45246 7.41177C8.52673 7.28875 8.63202 7.18563 8.75866 7.1119C8.96028 6.98674 9.18769 6.90487 9.42533 6.8719V8.7919L9.367 8.7999ZM11.2587 12.7999C11.0599 12.9328 10.8364 13.0279 10.6003 13.0799V10.7679L10.7753 10.8159C11.0366 10.8928 11.2741 11.0302 11.467 11.2159C11.5589 11.3068 11.6307 11.4146 11.678 11.5328C11.7253 11.6511 11.747 11.7773 11.742 11.9039C11.7435 12.0797 11.7003 12.2533 11.616 12.4094C11.5318 12.5656 11.4091 12.6996 11.2587 12.7999ZM10.0003 1.3999C8.22854 1.3999 6.49654 1.90428 5.02335 2.84926C3.55016 3.79424 2.40194 5.13738 1.72391 6.70883C1.04587 8.28027 0.868469 10.0094 1.21413 11.6777C1.55979 13.3459 2.41299 14.8783 3.66583 16.081C4.91868 17.2838 6.5149 18.1028 8.25265 18.4347C9.99039 18.7665 11.7916 18.5962 13.4285 17.9453C15.0655 17.2944 16.4646 16.1921 17.4489 14.7778C18.4333 13.3635 18.9587 11.7008 18.9587 9.9999C18.9565 7.71969 18.0119 5.53348 16.3324 3.92112C14.6529 2.30877 12.3756 1.40202 10.0003 1.3999ZM10.0003 17.3999C8.47577 17.3999 6.98544 16.9659 5.71781 16.1528C4.45018 15.3397 3.46218 14.1839 2.87876 12.8318C2.29533 11.4796 2.14268 9.99169 2.44011 8.55623C2.73754 7.12077 3.47169 5.80222 4.54972 4.76731C5.62774 3.7324 7.00124 3.02762 8.49651 2.74209C9.99178 2.45656 11.5417 2.60311 12.9502 3.16319C14.3587 3.72328 15.5626 4.67176 16.4096 5.88868C17.2566 7.10561 17.7087 8.53632 17.7087 9.9999C17.7065 11.9619 16.8936 13.8428 15.4485 15.2302C14.0034 16.6175 12.044 17.3978 10.0003 17.3999Z" fill="#0C98FE"/>
</svg>
