<svg width="24" height="24" viewBox="0 0 24 24" fill="none" xmlns="http://www.w3.org/2000/svg">
<path d="M21.13 11.25C20.9319 11.2552 20.7437 11.3376 20.6055 11.4796C20.4672 11.6215 20.3899 11.8119 20.39 12.01V14.18L15 9.00002C14.8589 8.88467 14.6822 8.82166 14.5 8.82166C14.3177 8.82166 14.1411 8.88467 14 9.00002L10.1 12.63L3.88998 6.51002C3.74213 6.36407 3.54274 6.28223 3.33498 6.28223C3.12722 6.28223 2.92783 6.36407 2.77998 6.51002C2.63638 6.6591 2.55615 6.85803 2.55615 7.06502C2.55615 7.27201 2.63638 7.47094 2.77998 7.62002L9.52998 14.27C9.67689 14.41 9.87204 14.4881 10.075 14.4881C10.2779 14.4881 10.4731 14.41 10.62 14.27L14.48 10.58L19.64 15.58H16.8C16.6048 15.5893 16.4197 15.6696 16.2797 15.806C16.1397 15.9423 16.0544 16.1251 16.04 16.32C16.0387 16.4185 16.0568 16.5163 16.0932 16.6078C16.1297 16.6993 16.1838 16.7827 16.2526 16.8533C16.3213 16.9239 16.4032 16.9802 16.4937 17.0191C16.5842 17.058 16.6815 17.0787 16.78 17.08L21.16 17.13C21.2593 17.13 21.3577 17.1103 21.4493 17.072C21.541 17.0337 21.6241 16.9775 21.6939 16.9068C21.7637 16.8361 21.8187 16.7523 21.8558 16.6601C21.8929 16.568 21.9113 16.4694 21.91 16.37V11.99C21.8997 11.7902 21.813 11.6019 21.6678 11.4642C21.5227 11.3264 21.3301 11.2498 21.13 11.25Z" fill="#0C98FE"/>
</svg>
