<svg width="18" height="18" viewBox="0 0 18 18" fill="none" xmlns="http://www.w3.org/2000/svg">
<path d="M12.2001 1.22533C12.8085 1.23077 13.41 1.35602 13.97 1.59391C14.5301 1.83181 15.0378 2.17769 15.4642 2.61181C15.8906 3.04592 16.2273 3.55978 16.4551 4.12403C16.6828 4.68827 16.7972 5.29186 16.7917 5.90033V12.1003C16.7972 12.7088 16.6828 13.3124 16.4551 13.8766C16.2273 14.4409 15.8906 14.9547 15.4642 15.3888C15.0378 15.823 14.5301 16.1688 13.97 16.4067C13.41 16.6446 12.8085 16.7699 12.2001 16.7753H5.80008C5.19162 16.7699 4.59018 16.6446 4.03012 16.4067C3.47006 16.1688 2.96235 15.823 2.53597 15.3888C2.10959 14.9547 1.77289 14.4409 1.54511 13.8766C1.31733 13.3124 1.20292 12.7088 1.20841 12.1003V5.90033C1.20292 5.29186 1.31733 4.68827 1.54511 4.12403C1.77289 3.55978 2.10959 3.04592 2.53597 2.61181C2.96235 2.17769 3.47006 1.83181 4.03012 1.59391C4.59018 1.35602 5.19162 1.23077 5.80008 1.22533H12.2001ZM7.68341 9.87533C7.96801 9.87426 8.24394 9.77739 8.46675 9.60033L9.66675 8.62533C9.67456 8.62162 9.6831 8.6197 9.69175 8.6197C9.7004 8.6197 9.70893 8.62162 9.71675 8.62533C9.73818 8.61696 9.76198 8.61696 9.78341 8.62533L11.6834 10.7003H10.7584C10.6125 10.7176 10.4781 10.7878 10.3805 10.8976C10.2829 11.0075 10.229 11.1493 10.229 11.2962C10.229 11.4431 10.2829 11.5849 10.3805 11.6947C10.4781 11.8045 10.6125 11.8747 10.7584 11.892H13.0167C13.0944 11.8909 13.1712 11.8745 13.2425 11.8438C13.3139 11.813 13.3785 11.7685 13.4327 11.7128C13.4869 11.6571 13.5295 11.5913 13.5582 11.5191C13.587 11.4468 13.6012 11.3697 13.6001 11.292V9.00033C13.6001 8.92372 13.585 8.84787 13.5557 8.77709C13.5264 8.70632 13.4834 8.64201 13.4292 8.58785C13.3751 8.53368 13.3108 8.49071 13.24 8.4614C13.1692 8.43208 13.0934 8.41699 13.0167 8.41699C12.9401 8.41699 12.8643 8.43208 12.7935 8.4614C12.7227 8.49071 12.6584 8.53368 12.6043 8.58785C12.5501 8.64201 12.5071 8.70632 12.4778 8.77709C12.4485 8.84787 12.4334 8.92372 12.4334 9.00033V9.83366L10.6667 7.82533C10.5505 7.69763 10.409 7.59541 10.2512 7.52513C10.0934 7.45485 9.9228 7.41803 9.75008 7.41699C9.46625 7.41613 9.19143 7.5166 8.97508 7.70033L7.76675 8.67533H7.71675C7.69782 8.68168 7.67734 8.68168 7.65842 8.67533L5.75841 6.72533C5.70541 6.66762 5.64102 6.62154 5.5693 6.58998C5.49758 6.55842 5.4201 6.54208 5.34175 6.54199C5.18788 6.54418 5.04112 6.60708 4.93341 6.71699C4.82547 6.82884 4.76514 6.97822 4.76514 7.13366C4.76514 7.2891 4.82547 7.43848 4.93341 7.55033L6.80008 9.49199C6.91414 9.61405 7.05226 9.71114 7.20574 9.77712C7.35921 9.8431 7.5247 9.87654 7.69175 9.87533M12.2084 0.0419922H5.80008C4.26602 0.0617175 2.80148 0.684996 1.72369 1.77683C0.645897 2.86866 0.0416213 4.34114 0.0417481 5.87533V12.0753C0.0416213 13.6095 0.645897 15.082 1.72369 16.1738C2.80148 17.2657 4.26602 17.8889 5.80008 17.9087H12.2001C13.7341 17.8889 15.1987 17.2657 16.2765 16.1738C17.3543 15.082 17.9585 13.6095 17.9584 12.0753V5.90033C17.9585 4.36614 17.3543 2.89366 16.2765 1.80183C15.1987 0.709996 13.7341 0.0867174 12.2001 0.0669922L12.2084 0.0419922Z" fill="#566B87"/>
</svg>
