<svg width="16" height="18" viewBox="0 0 16 18" fill="none" xmlns="http://www.w3.org/2000/svg">
<path d="M15.1838 7.69993C15.1783 7.15943 15.0317 6.62975 14.7583 6.16343C14.4849 5.69712 14.0944 5.31039 13.6254 5.0416L13.4671 4.94993V3.0916C13.4671 2.68779 13.3876 2.28793 13.233 1.91485C13.0785 1.54177 12.852 1.20279 12.5665 0.917248C12.2809 0.631708 11.9419 0.405205 11.5689 0.250672C11.1958 0.0961388 10.7959 0.0166016 10.3921 0.0166016H5.60878C4.79324 0.0166016 4.0111 0.340574 3.43442 0.917248C2.85775 1.49392 2.53378 2.27606 2.53378 3.0916V4.9916L2.29211 5.13327C1.82725 5.40942 1.4427 5.80236 1.17665 6.27308C0.91059 6.74379 0.772279 7.27591 0.775444 7.8166V12.5749C0.780889 13.1154 0.927566 13.6451 1.20092 14.1114C1.47428 14.5778 1.86481 14.9645 2.33378 15.2333L6.50044 17.5833C6.97071 17.8538 7.50375 17.9962 8.04628 17.9962C8.58881 17.9962 9.12184 17.8538 9.59211 17.5833L13.6838 15.1666C14.1508 14.8921 14.5374 14.4998 14.8051 14.0288C15.0727 13.5579 15.2119 13.0249 15.2088 12.4833L15.1838 7.69993ZM3.78378 3.0916C3.78378 2.60758 3.97605 2.14339 4.31831 1.80113C4.66056 1.45888 5.12476 1.2666 5.60878 1.2666H10.3921C10.8761 1.2666 11.3403 1.45888 11.6826 1.80113C12.0248 2.14339 12.2171 2.60758 12.2171 3.0916V4.2416L9.48378 2.6916C9.36489 2.62652 9.24248 2.5681 9.11711 2.5166C8.73855 2.37833 8.33644 2.31603 7.93378 2.33327C7.6661 2.3318 7.39956 2.36827 7.14211 2.4416C6.87861 2.51178 6.62618 2.61837 6.39211 2.75827L3.78378 4.25827V3.0916ZM13.0671 14.0666L8.96711 16.4999C8.69267 16.6555 8.38258 16.7373 8.06711 16.7373C7.75164 16.7373 7.44155 16.6555 7.16711 16.4999L3.00044 14.1499C2.7214 13.9898 2.48916 13.7594 2.32687 13.4816C2.16458 13.2038 2.07789 12.8883 2.07544 12.5666V7.80827C2.0681 7.49015 2.1433 7.17555 2.29373 6.89514C2.44416 6.61473 2.66467 6.37809 2.93378 6.20827L7.02544 3.79994C7.30596 3.63991 7.62333 3.55575 7.94628 3.55575C8.26923 3.55575 8.5866 3.63991 8.86711 3.79994L13.0338 6.1416C13.3128 6.30173 13.5451 6.53216 13.7073 6.80996C13.8696 7.08775 13.9563 7.40322 13.9588 7.72494L14.0004 12.4833C13.998 12.806 13.9104 13.1223 13.7465 13.4003C13.5826 13.6784 13.3483 13.9082 13.0671 14.0666Z" fill="url(#paint0_linear_564_5015)"/>
<path d="M9.15842 13.3667C8.92494 13.3659 8.69551 13.3057 8.49175 13.1917L8.05842 12.9667C8.0077 12.9459 7.95081 12.9459 7.90008 12.9667L7.46675 13.2C7.23076 13.3202 6.96595 13.3722 6.70205 13.3502C6.43814 13.3283 6.18558 13.2332 5.97269 13.0757C5.7598 12.9182 5.59501 12.7045 5.49682 12.4585C5.39862 12.2126 5.37089 11.9442 5.41675 11.6834L5.50008 11.2C5.51248 11.177 5.51897 11.1512 5.51897 11.125C5.51897 11.0988 5.51248 11.0731 5.50008 11.05L5.10842 10.6667C4.91763 10.4837 4.78327 10.2499 4.72124 9.9929C4.65921 9.73593 4.67211 9.46656 4.75842 9.21669C4.84063 8.965 4.99214 8.74158 5.19555 8.57207C5.39895 8.40257 5.64603 8.29384 5.90842 8.25835L6.40008 8.19169C6.42656 8.18704 6.45161 8.17635 6.47329 8.16045C6.49497 8.14455 6.51269 8.12387 6.52508 8.10002L6.74175 7.65835C6.86291 7.43089 7.0445 7.24128 7.26653 7.11041C7.48856 6.97955 7.7424 6.91251 8.00008 6.91669C8.26463 6.9146 8.52429 6.98797 8.74863 7.12818C8.97297 7.26839 9.1527 7.46965 9.26675 7.70835L9.48342 8.15002C9.49534 8.17506 9.51278 8.19706 9.53443 8.21438C9.55608 8.23171 9.58138 8.24389 9.60842 8.25002L10.0918 8.31669C10.3536 8.35632 10.5991 8.46855 10.8004 8.64066C11.0017 8.81276 11.1507 9.03784 11.2305 9.29036C11.3104 9.54287 11.3178 9.8127 11.252 10.0692C11.1863 10.3258 11.0499 10.5587 10.8584 10.7417L10.5001 11.0834C10.48 11.1023 10.4649 11.1259 10.4562 11.152C10.4474 11.1782 10.4453 11.2062 10.4501 11.2334L10.5334 11.7167C10.5686 11.9209 10.5587 12.1303 10.5046 12.3304C10.4505 12.5304 10.3535 12.7162 10.2202 12.8749C10.0869 13.0336 9.92062 13.1613 9.73293 13.2491C9.54523 13.3369 9.34064 13.3827 9.13342 13.3834L9.15842 13.3667ZM7.97509 11.7C8.20753 11.7007 8.43633 11.7579 8.64175 11.8667L9.07508 12.1C9.10265 12.117 9.13439 12.1259 9.16675 12.1259C9.19912 12.1259 9.23085 12.117 9.25842 12.1C9.28289 12.0803 9.30187 12.0546 9.31354 12.0254C9.32522 11.9962 9.32919 11.9645 9.32508 11.9334L9.24175 11.45C9.20546 11.2235 9.22439 10.9916 9.29693 10.774C9.36948 10.5563 9.49348 10.3595 9.65842 10.2L10.0168 9.85835C10.0382 9.83522 10.0532 9.80697 10.0605 9.77632C10.0678 9.74566 10.0671 9.71365 10.0584 9.68335C10.049 9.65438 10.0314 9.62875 10.0077 9.60953C9.98407 9.59032 9.95538 9.57833 9.92509 9.57502L9.43342 9.50002C9.20725 9.46353 8.99312 9.37336 8.80898 9.23707C8.62484 9.10078 8.47605 8.92233 8.37508 8.71669L8.15842 8.27502C8.15842 8.19169 8.04175 8.15002 8.00842 8.18335C7.97695 8.18091 7.94551 8.18845 7.91858 8.20491C7.89165 8.22137 7.8706 8.2459 7.85842 8.27502L7.64175 8.70835C7.53946 8.91471 7.38783 9.09264 7.20031 9.22638C7.01279 9.36011 6.79518 9.44552 6.56675 9.47502L6.08342 9.54169C6.05132 9.54611 6.02108 9.55936 5.99606 9.57996C5.97105 9.60056 5.95225 9.6277 5.94175 9.65835C5.93385 9.68871 5.93351 9.72054 5.94078 9.75105C5.94804 9.78156 5.96268 9.80982 5.98342 9.83335L6.33342 10.175C6.49725 10.3365 6.61929 10.5355 6.68898 10.7547C6.75867 10.974 6.77393 11.2069 6.73342 11.4334L6.65008 11.9167C6.645 11.9473 6.64855 11.9787 6.66033 12.0073C6.6721 12.036 6.69164 12.0608 6.71675 12.079C6.74185 12.0972 6.77153 12.108 6.80244 12.1102C6.83336 12.1125 6.86429 12.1061 6.89175 12.0917L7.32508 11.8667C7.53274 11.7549 7.76429 11.6949 8.00008 11.6917L7.97509 11.7Z" fill="url(#paint1_linear_564_5015)"/>
<defs>
<linearGradient id="paint0_linear_564_5015" x1="0.775391" y1="0.0166016" x2="16.5181" y2="1.23257" gradientUnits="userSpaceOnUse">
<stop stop-color="#A07AF7"/>
<stop offset="1" stop-color="#55A0F0"/>
</linearGradient>
<linearGradient id="paint1_linear_564_5015" x1="4.68262" y1="6.9165" x2="11.8698" y2="7.62375" gradientUnits="userSpaceOnUse">
<stop stop-color="#A07AF7"/>
<stop offset="1" stop-color="#55A0F0"/>
</linearGradient>
</defs>
</svg>
