<svg width="24" height="24" viewBox="0 0 24 24" fill="none" xmlns="http://www.w3.org/2000/svg">
<g clip-path="url(#clip0_220_6890)">
<path d="M19.7073 23.5907C14.5854 24.1371 9.42002 24.1371 4.29818 23.5907C3.30357 23.4856 2.37501 23.0429 1.66731 22.3361C0.959605 21.6294 0.515522 20.7015 0.409094 19.707C-0.137341 14.5852 -0.137341 9.41977 0.409094 4.29794C0.514126 3.30333 0.956907 2.37477 1.66362 1.66706C2.37033 0.959361 3.29827 0.515278 4.29273 0.408849C9.41456 -0.137585 14.58 -0.137585 19.7018 0.408849C20.6964 0.513882 21.625 0.956662 22.3327 1.66337C23.0404 2.37008 23.4845 3.29802 23.5909 4.29249C24.1373 9.41432 24.1373 14.5797 23.5909 19.7016C23.4859 20.6962 23.0431 21.6247 22.3364 22.3325C21.6297 23.0402 20.7017 23.4842 19.7073 23.5907Z" fill="#FF4A3D" fill-opacity="0.15"/>
<path d="M12 4.8667L13.77 10.3158H19.5L14.865 13.684L16.635 19.1331L12 15.7649L7.365 19.1331L9.135 13.684L4.5 10.3158H10.23L12 4.8667Z" fill="#FF4A3D"/>
</g>
<defs>
<clipPath id="clip0_220_6890">
<rect width="24" height="24" fill="white"/>
</clipPath>
</defs>
</svg>
