<?xml version="1.0" standalone="no"?>
<!DOCTYPE svg PUBLIC "-//W3C//DTD SVG 20010904//EN"
 "http://www.w3.org/TR/2001/REC-SVG-20010904/DTD/svg10.dtd">
<svg version="1.0" xmlns="http://www.w3.org/2000/svg"
 width="414.000000pt" height="418.000000pt" viewBox="0 0 414.000000 418.000000"
 preserveAspectRatio="xMidYMid meet">

<g transform="translate(0.000000,418.000000) scale(0.100000,-0.100000)"
fill="#000000" stroke="none">
<path d="M1840 4155 c-695 -90 -1280 -510 -1590 -1140 -137 -277 -200 -559
-200 -890 1 -542 199 -1033 575 -1423 187 -194 340 -305 580 -422 304 -148
572 -213 880 -212 312 1 605 72 900 219 598 299 993 841 1111 1528 25 141 25
500 1 640 -101 582 -407 1052 -897 1380 -117 78 -341 186 -485 234 -273 91
-597 123 -875 86z m313 -365 c45 -45 47 -65 7 -85 -16 -8 -37 -29 -45 -45 -20
-39 -41 -38 -65 3 -11 19 -31 39 -45 45 -34 16 -31 43 6 71 16 12 35 34 42 49
17 39 30 45 47 20 8 -12 32 -38 53 -58z m-405 -52 c17 -17 15 -53 -3 -68 -38
-31 -96 27 -65 65 15 18 51 20 68 3z m-264 -37 c26 -29 17 -73 -16 -85 -55
-19 -93 55 -46 88 29 21 41 20 62 -3z m1278 -108 c35 -33 36 -56 3 -71 -14 -6
-25 -16 -25 -22 0 -19 -25 -10 -57 21 -18 16 -33 32 -33 34 0 8 65 65 74 65 6
0 23 -12 38 -27z m208 -128 c17 -21 5 -45 -24 -45 -27 0 -42 26 -25 46 15 18
33 18 49 -1z m-1706 -50 c27 -28 -10 -69 -40 -44 -17 14 -18 31 -2 47 16 16
23 15 42 -3z m1002 -85 c267 -69 459 -255 509 -495 18 -88 18 -132 0 -218 -39
-186 -176 -341 -381 -430 -185 -81 -424 -81 -618 0 -137 57 -268 169 -329 282
-34 62 -67 188 -67 255 1 230 151 448 382 556 152 71 346 90 504 50z m-1296
-145 c35 -18 60 -62 60 -106 0 -22 -10 -41 -34 -65 -29 -29 -41 -34 -81 -34
-145 0 -142 215 3 219 13 1 36 -6 52 -14z m2363 -25 c39 -44 38 -110 -2 -151
-61 -61 -174 -24 -187 61 -17 110 115 173 189 90z m-2123 -602 c1 -23 69 -181
96 -221 l26 -39 -29 -62 c-25 -55 -28 -71 -28 -171 0 -103 2 -114 33 -179 24
-51 53 -90 115 -151 89 -88 172 -141 290 -183 69 -25 83 -26 337 -30 314 -4
366 3 510 74 79 39 110 62 181 133 63 63 95 105 120 156 32 66 34 75 34 175 0
93 -3 113 -28 172 l-28 66 25 41 c32 51 72 140 86 192 6 21 14 39 18 39 16 0
82 -120 106 -191 37 -109 49 -208 43 -334 -6 -134 -34 -242 -89 -354 -138
-279 -391 -481 -705 -562 -73 -19 -113 -23 -238 -22 -167 0 -270 21 -414 82
-212 90 -413 276 -520 481 -64 123 -92 233 -98 386 -8 194 23 329 104 454 37
59 53 72 53 48z m-550 -295 c15 -16 35 -34 44 -41 23 -18 20 -29 -11 -49 -16
-9 -36 -26 -45 -37 l-17 -21 -28 26 c-15 15 -38 32 -50 38 -33 17 -28 36 12
60 20 11 38 27 41 36 9 22 22 19 54 -12z m2910 7 c6 -11 24 -27 40 -35 36 -18
38 -40 8 -56 -13 -6 -36 -23 -51 -38 l-28 -26 -17 21 c-9 12 -29 29 -44 39
-36 22 -35 41 2 60 16 8 34 24 40 35 6 11 17 20 25 20 8 0 19 -9 25 -20z m234
-16 c10 -26 -5 -45 -33 -42 -31 4 -41 36 -16 54 19 14 41 9 49 -12z m-3384 1
c17 -20 5 -45 -20 -45 -23 0 -35 22 -26 45 7 19 30 19 46 0z m1108 -151 c67
-51 212 -119 312 -146 71 -19 111 -22 245 -22 136 -1 173 3 244 22 104 28 205
74 295 136 80 54 90 51 90 -27 -1 -133 -155 -284 -339 -332 -72 -18 -473 -21
-557 -4 -185 38 -368 205 -368 335 0 26 17 74 25 74 4 0 27 -16 53 -36z m-599
-438 c6 -8 32 -54 56 -102 24 -49 65 -117 90 -151 25 -35 42 -63 37 -63 -5 0
-15 11 -22 25 -7 13 -18 22 -23 18 -6 -3 -7 -1 -3 5 4 7 2 12 -4 12 -6 0 -8 5
-4 12 4 7 3 8 -4 4 -15 -9 -16 -46 -2 -46 6 0 10 -5 10 -11 0 -5 -4 -8 -9 -4
-5 3 -3 -8 5 -24 8 -16 23 -31 34 -34 11 -3 20 -11 20 -19 0 -10 -2 -10 -10 2
-5 8 -11 12 -14 9 -3 -3 28 -41 68 -85 114 -123 289 -235 486 -311 251 -97
560 -104 832 -18 217 68 443 214 577 370 19 22 43 50 55 63 17 19 18 22 3 16
-21 -8 -22 0 0 33 18 27 25 66 11 57 -4 -3 -8 0 -8 5 0 6 8 11 18 11 12 0 14
2 4 8 -10 7 -8 14 8 35 11 14 36 59 56 101 20 41 42 80 49 86 8 7 112 9 316 8
l304 -3 3 -31 c7 -69 -120 -362 -230 -532 -121 -186 -359 -445 -390 -426 -6 4
-8 3 -5 -3 4 -6 -32 -38 -81 -72 -107 -76 -192 -125 -192 -111 0 5 -4 10 -10
10 -5 0 -7 -6 -4 -14 4 -10 -2 -12 -23 -10 -23 4 -24 3 -8 -4 17 -8 11 -13
-43 -41 -34 -17 -67 -29 -72 -26 -6 4 -10 0 -11 -7 0 -10 -2 -10 -6 0 -7 19
-62 15 -70 -5 -6 -15 -8 -14 -14 7 -6 23 -7 23 -8 3 -1 -29 16 -39 37 -19 11
9 23 12 31 7 9 -6 -1 -13 -33 -24 -25 -9 -46 -13 -47 -9 -3 26 -10 57 -16 61
-3 3 -3 -9 -1 -27 4 -31 3 -33 -19 -27 -53 13 -113 17 -113 8 0 -6 11 -9 25
-8 14 2 23 -1 19 -6 -3 -5 -12 -9 -20 -9 -8 0 -26 -7 -39 -16 -14 -9 -25 -13
-25 -9 0 4 -7 2 -15 -5 -10 -9 -15 -9 -15 -1 0 14 -66 15 -75 1 -9 -15 -25
-12 -25 5 0 9 7 18 15 21 12 5 13 9 4 20 -15 18 -41 0 -32 -22 6 -15 -13 -44
-29 -44 -6 0 -8 7 -4 15 4 12 -1 15 -24 13 -31 -2 -40 -13 -18 -20 7 -3 -4 -5
-25 -6 -26 -1 -36 2 -31 10 5 7 0 9 -14 6 -23 -6 -48 15 -37 32 8 13 2 13 -30
-2 -32 -14 -32 -28 0 -22 14 2 25 0 25 -6 0 -19 -44 -10 -65 13 -11 13 -16 17
-12 10 5 -6 6 -17 2 -24 -6 -8 -10 -8 -15 2 -7 10 -11 10 -25 -1 -12 -10 -21
-10 -40 -2 -20 9 -23 9 -18 -3 3 -8 0 -15 -6 -15 -6 0 -11 5 -11 10 0 6 -7 10
-16 10 -11 0 -14 5 -10 16 5 14 4 15 -8 5 -8 -6 -18 -11 -22 -10 -16 2 -54
-13 -54 -22 0 -5 -7 -9 -16 -9 -9 0 -14 6 -11 13 9 24 -69 15 -91 -11 -24 -27
-18 -27 -115 -1 -69 19 -78 24 -73 41 3 14 -1 22 -15 25 -35 10 -15 30 24 24
4 0 7 5 7 13 0 9 -7 12 -20 9 -11 -3 -20 0 -20 6 0 6 -7 11 -15 11 -8 0 -15
-4 -15 -9 0 -5 -14 -14 -31 -20 -17 -6 -28 -15 -24 -21 3 -6 10 -8 14 -6 4 3
8 -1 8 -8 0 -10 -15 -8 -56 9 -84 33 -111 47 -111 57 0 4 -3 7 -7 7 -24 -4
-43 4 -66 26 -14 14 -34 28 -45 30 -43 8 -202 111 -273 177 -16 14 -29 24 -29
20 0 -3 -13 7 -30 23 -16 15 -27 32 -24 36 3 5 -1 6 -9 3 -9 -3 -24 7 -36 23
-13 15 -42 48 -65 73 -148 157 -302 409 -386 633 -48 131 -56 167 -39 178 8 5
150 9 315 9 246 0 304 -3 313 -14z m599 -1258 c-2 -6 -10 -14 -16 -16 -7 -2
-10 2 -6 12 7 18 28 22 22 4z m12 -53 c8 -9 9 -15 2 -15 -6 0 -14 5 -17 10 -4
6 -11 7 -17 4 -7 -4 -8 -2 -4 4 10 16 21 15 36 -3z m1094 -16 c-29 -12 -36
-10 -22 5 7 7 19 11 27 8 11 -4 10 -7 -5 -13z m-79 -19 c-3 -5 -14 -10 -23 -9
-14 0 -13 2 3 9 27 11 27 11 20 0z m-590 -10 c3 -5 -1 -10 -9 -10 -9 0 -16 5
-16 10 0 6 4 10 9 10 6 0 13 -4 16 -10z m235 -6 c0 -2 -12 -4 -27 -4 -21 0
-24 3 -14 9 13 8 41 5 41 -5z m235 6 c-3 -5 4 -10 17 -11 18 -1 16 -3 -11 -10
-18 -6 -36 -8 -39 -5 -3 3 2 6 11 6 10 0 16 3 16 8 -2 12 1 22 7 22 3 0 2 -4
-1 -10z m75 0 c0 -5 -7 -10 -16 -10 -8 0 -12 5 -9 10 3 6 10 10 16 10 5 0 9
-4 9 -10z m-695 -10 c-3 -5 -14 -10 -23 -10 -15 0 -15 2 -2 10 20 13 33 13 25
0z m242 4 c-3 -3 -12 -4 -19 -1 -8 3 -5 6 6 6 11 1 17 -2 13 -5z m-230 -30
c-3 -3 -12 -4 -19 -1 -8 3 -5 6 6 6 11 1 17 -2 13 -5z m483 -10 c0 -2 -12 -4
-27 -4 -21 0 -24 3 -14 9 13 8 41 5 41 -5z m63 9 c-7 -2 -19 -2 -25 0 -7 3 -2
5 12 5 14 0 19 -2 13 -5z m-480 -10 c-7 -2 -19 -2 -25 0 -7 3 -2 5 12 5 14 0
19 -2 13 -5z m259 -10 c-40 -2 -103 -2 -140 0 -37 2 -4 3 73 3 77 0 107 -2 67
-3z"/>
<path d="M1773 2766 c-28 -24 -28 -25 -31 -161 -4 -153 4 -187 49 -210 45 -24
87 -19 120 14 l29 29 0 147 0 147 -29 29 c-39 38 -97 40 -138 5z"/>
<path d="M2259 2761 l-29 -29 0 -147 0 -147 29 -29 c47 -47 132 -33 159 26 18
40 16 268 -3 305 -31 59 -107 69 -156 21z"/>
<path d="M1424 739 c-3 -6 -1 -16 5 -22 9 -9 10 -7 5 7 -6 15 -4 17 6 11 9 -5
11 -4 6 3 -9 15 -13 15 -22 1z"/>
<path d="M1707 663 c-3 -5 0 -17 4 -28 9 -19 9 -19 5 2 -2 12 1 24 8 27 8 3 8
5 -1 5 -6 1 -14 -2 -16 -6z"/>
<path d="M1380 639 c0 -15 18 -19 23 -6 3 8 -1 14 -9 14 -8 0 -14 -4 -14 -8z"/>
<path d="M1702 590 c0 -14 2 -19 5 -12 2 6 2 18 0 25 -3 6 -5 1 -5 -13z"/>
<path d="M2342 529 c6 -16 12 -28 14 -26 5 5 -13 57 -20 57 -3 0 0 -14 6 -31z"/>
<path d="M2141 534 c0 -11 3 -14 6 -6 3 7 2 16 -1 19 -3 4 -6 -2 -5 -13z"/>
<path d="M2172 525 c0 -16 6 -46 13 -65 l14 -35 -6 40 c-3 22 -10 51 -14 65
-7 24 -7 24 -7 -5z"/>
<path d="M2810 541 c0 -6 4 -13 10 -16 6 -3 7 1 4 9 -7 18 -14 21 -14 7z"/>
<path d="M1838 502 c-3 -11 0 -19 8 -19 8 0 14 9 14 19 0 10 -4 18 -9 18 -5 0
-11 -8 -13 -18z"/>
<path d="M2850 501 c0 -12 5 -21 10 -21 6 0 10 6 10 14 0 8 -4 18 -10 21 -5 3
-10 -3 -10 -14z"/>
<path d="M1288 463 c7 -3 16 -2 19 1 4 3 -2 6 -13 5 -11 0 -14 -3 -6 -6z"/>
<path d="M1860 462 c0 -7 5 -22 10 -33 10 -18 5 -23 -20 -21 -3 0 -5 -10 -5
-23 0 -18 3 -21 13 -12 25 20 29 42 16 72 -7 17 -13 24 -14 17z"/>
<path d="M2852 455 c-25 -13 -50 -35 -41 -35 11 0 69 32 74 41 8 12 -5 10 -33
-6z"/>
<path d="M1671 444 c0 -11 3 -14 6 -6 3 7 2 16 -1 19 -3 4 -6 -2 -5 -13z"/>
<path d="M2008 453 c7 -3 16 -2 19 1 4 3 -2 6 -13 5 -11 0 -14 -3 -6 -6z"/>
<path d="M1406 415 c-3 -9 0 -15 9 -15 8 0 15 7 15 15 0 8 -4 15 -9 15 -5 0
-11 -7 -15 -15z"/>
<path d="M1600 414 c0 -8 10 -14 25 -14 14 0 27 0 30 0 3 0 5 3 5 8 1 4 -13
10 -30 13 -22 5 -30 3 -30 -7z"/>
<path d="M2325 409 c-11 -16 -1 -19 13 -3 7 8 8 14 3 14 -5 0 -13 -5 -16 -11z"/>
<path d="M1685 370 c6 -35 -4 -38 -30 -10 -19 21 -45 27 -45 11 0 -5 9 -13 20
-16 11 -3 26 -12 33 -19 21 -22 51 6 43 38 -9 36 -27 33 -21 -4z"/>
<path d="M1871 358 c0 -16 2 -18 6 -8 3 8 11 18 17 22 7 5 4 8 -6 8 -12 0 -18
-7 -17 -22z"/>
<path d="M2215 356 c17 -13 32 -23 33 -21 6 5 -34 40 -49 43 -8 2 0 -8 16 -22z"/>
<path d="M1570 346 c0 -2 7 -7 16 -10 8 -3 12 -2 9 4 -6 10 -25 14 -25 6z"/>
<path d="M1610 340 c0 -5 5 -10 10 -10 6 0 10 5 10 10 0 6 -4 10 -10 10 -5 0
-10 -4 -10 -10z"/>
<path d="M1702 324 c-11 -12 -10 -15 3 -20 17 -7 48 14 39 27 -8 13 -27 10
-42 -7z"/>
</g>
</svg>
