<svg width="36" height="35" viewBox="0 0 36 35" fill="none" xmlns="http://www.w3.org/2000/svg">
<path d="M0.5 17.5C0.5 7.83502 8.33502 0 18 0C27.665 0 35.5 7.83502 35.5 17.5C35.5 27.165 27.665 35 18 35C8.33502 35 0.5 27.165 0.5 17.5Z" fill="#0077B5"/>
<path fill-rule="evenodd" clip-rule="evenodd" d="M13.1283 10.8082C13.1283 11.9524 12.2671 12.8679 10.8843 12.8679H10.8589C9.5275 12.8679 8.66675 11.9524 8.66675 10.8082C8.66675 9.63988 9.55371 8.75 10.9104 8.75C12.2671 8.75 13.1026 9.63988 13.1283 10.8082ZM12.8672 14.4943V26.4101H8.90127V14.4943H12.8672ZM27.1695 26.4101L27.1696 19.578C27.1696 15.9179 25.2132 14.2145 22.6034 14.2145C20.4978 14.2145 19.5551 15.3711 19.0287 16.1824V14.4946H15.0623C15.1146 15.6127 15.0623 26.4105 15.0623 26.4105H19.0287V19.7557C19.0287 19.3995 19.0544 19.0443 19.1593 18.7893C19.4459 18.0779 20.0985 17.3412 21.1942 17.3412C22.6299 17.3412 23.2038 18.4339 23.2038 20.0352V26.4101H27.1695Z" fill="white"/>
</svg>
