<svg width="236" height="40" viewBox="0 0 236 40" fill="none" xmlns="http://www.w3.org/2000/svg">
<g clip-path="url(#clip0_241_828)">
<path d="M72.3375 31.3C71.6575 31.3 71.0075 31.21 70.3875 31.03C69.7675 30.85 69.1875 30.59 68.6475 30.25C68.1275 29.91 67.6575 29.51 67.2375 29.05C66.8175 28.57 66.4575 28.05 66.1575 27.49L68.1975 25.36C68.6175 25.96 68.9975 26.44 69.3375 26.8C69.6975 27.16 70.0375 27.44 70.3575 27.64C70.6775 27.84 70.9975 27.98 71.3175 28.06C71.6375 28.12 71.9775 28.15 72.3375 28.15C73.0575 28.15 73.6875 27.99 74.2275 27.67C74.7675 27.33 75.1875 26.87 75.4875 26.29C75.7875 25.71 75.9375 25.05 75.9375 24.31V13H72.0975V10H82.4175V13H79.1775V24.61C79.1775 25.57 79.0075 26.46 78.6675 27.28C78.3475 28.08 77.8775 28.78 77.2575 29.38C76.6575 29.98 75.9375 30.45 75.0975 30.79C74.2775 31.13 73.3575 31.3 72.3375 31.3ZM90.0914 31.3C88.9714 31.3 87.9914 31.04 87.1514 30.52C86.3314 30 85.6914 29.27 85.2314 28.33C84.7914 27.39 84.5714 26.27 84.5714 24.97V15.25H87.6614V24.13C87.6614 25.05 87.8014 25.85 88.0814 26.53C88.3814 27.19 88.8014 27.7 89.3414 28.06C89.9014 28.42 90.5714 28.6 91.3514 28.6C91.9314 28.6 92.4614 28.51 92.9414 28.33C93.4214 28.13 93.8314 27.86 94.1714 27.52C94.5314 27.18 94.8114 26.77 95.0114 26.29C95.2114 25.81 95.3114 25.29 95.3114 24.73V15.25H98.4014V31H95.3114V27.7L95.8514 27.34C95.6114 28.08 95.2014 28.75 94.6214 29.35C94.0614 29.95 93.3914 30.43 92.6114 30.79C91.8314 31.13 90.9914 31.3 90.0914 31.3ZM107.985 31.3C106.665 31.3 105.475 31.07 104.415 30.61C103.355 30.15 102.475 29.47 101.775 28.57L103.875 26.77C104.475 27.47 105.125 27.98 105.825 28.3C106.545 28.6 107.355 28.75 108.255 28.75C108.615 28.75 108.945 28.71 109.245 28.63C109.565 28.53 109.835 28.39 110.055 28.21C110.295 28.03 110.475 27.82 110.595 27.58C110.715 27.32 110.775 27.04 110.775 26.74C110.775 26.22 110.585 25.8 110.205 25.48C110.005 25.34 109.685 25.19 109.245 25.03C108.825 24.85 108.275 24.67 107.595 24.49C106.435 24.19 105.485 23.85 104.745 23.47C104.005 23.09 103.435 22.66 103.035 22.18C102.735 21.8 102.515 21.39 102.375 20.95C102.235 20.49 102.165 19.99 102.165 19.45C102.165 18.79 102.305 18.19 102.585 17.65C102.885 17.09 103.285 16.61 103.785 16.21C104.305 15.79 104.905 15.47 105.585 15.25C106.285 15.03 107.025 14.92 107.805 14.92C108.545 14.92 109.275 15.02 109.995 15.22C110.735 15.42 111.415 15.71 112.035 16.09C112.655 16.47 113.175 16.92 113.595 17.44L111.825 19.39C111.445 19.01 111.025 18.68 110.565 18.4C110.125 18.1 109.675 17.87 109.215 17.71C108.755 17.55 108.335 17.47 107.955 17.47C107.535 17.47 107.155 17.51 106.815 17.59C106.475 17.67 106.185 17.79 105.945 17.95C105.725 18.11 105.555 18.31 105.435 18.55C105.315 18.79 105.255 19.06 105.255 19.36C105.275 19.62 105.335 19.87 105.435 20.11C105.555 20.33 105.715 20.52 105.915 20.68C106.135 20.84 106.465 21.01 106.905 21.19C107.345 21.37 107.905 21.54 108.585 21.7C109.585 21.96 110.405 22.25 111.045 22.57C111.705 22.87 112.225 23.22 112.605 23.62C113.005 24 113.285 24.44 113.445 24.94C113.605 25.44 113.685 26 113.685 26.62C113.685 27.52 113.425 28.33 112.905 29.05C112.405 29.75 111.725 30.3 110.865 30.7C110.005 31.1 109.045 31.3 107.985 31.3ZM119.041 31V11.23H122.131V31H119.041ZM115.771 18.25V15.25H125.791V18.25H115.771ZM129.385 31V10H132.625V31H129.385ZM130.825 22.06V18.94H141.655V22.06H130.825ZM130.825 13.12V10H143.005V13.12H130.825ZM146.388 31V15.25H149.508V20.2L149.208 19C149.428 18.24 149.798 17.55 150.318 16.93C150.858 16.31 151.468 15.82 152.148 15.46C152.848 15.1 153.568 14.92 154.308 14.92C154.648 14.92 154.968 14.95 155.268 15.01C155.588 15.07 155.838 15.14 156.018 15.22L155.208 18.58C154.968 18.48 154.698 18.4 154.398 18.34C154.118 18.26 153.838 18.22 153.558 18.22C153.018 18.22 152.498 18.33 151.998 18.55C151.518 18.75 151.088 19.04 150.708 19.42C150.348 19.78 150.058 20.21 149.838 20.71C149.618 21.19 149.508 21.72 149.508 22.3V31H146.388ZM158.997 31V15.25H162.087V31H158.997ZM160.497 11.77C159.837 11.77 159.327 11.6 158.967 11.26C158.607 10.92 158.427 10.44 158.427 9.82C158.427 9.24 158.607 8.77 158.967 8.41C159.347 8.05 159.857 7.87 160.497 7.87C161.157 7.87 161.667 8.04 162.027 8.38C162.387 8.72 162.567 9.2 162.567 9.82C162.567 10.4 162.377 10.87 161.997 11.23C161.637 11.59 161.137 11.77 160.497 11.77ZM174.187 31.3C172.567 31.3 171.127 30.96 169.867 30.28C168.627 29.58 167.647 28.63 166.927 27.43C166.227 26.23 165.877 24.85 165.877 23.29C165.877 22.05 166.077 20.92 166.477 19.9C166.877 18.88 167.427 18 168.127 17.26C168.847 16.5 169.697 15.92 170.677 15.52C171.677 15.1 172.757 14.89 173.917 14.89C174.937 14.89 175.887 15.09 176.767 15.49C177.647 15.87 178.407 16.4 179.047 17.08C179.707 17.76 180.207 18.57 180.547 19.51C180.907 20.43 181.077 21.44 181.057 22.54L181.027 23.86H168.157L167.467 21.4H178.357L177.907 21.91V21.19C177.847 20.53 177.627 19.94 177.247 19.42C176.867 18.9 176.387 18.49 175.807 18.19C175.227 17.89 174.597 17.74 173.917 17.74C172.837 17.74 171.927 17.95 171.187 18.37C170.447 18.77 169.887 19.37 169.507 20.17C169.127 20.95 168.937 21.92 168.937 23.08C168.937 24.18 169.167 25.14 169.627 25.96C170.087 26.76 170.737 27.38 171.577 27.82C172.417 28.26 173.387 28.48 174.487 28.48C175.267 28.48 175.987 28.35 176.647 28.09C177.327 27.83 178.057 27.36 178.837 26.68L180.397 28.87C179.917 29.35 179.327 29.77 178.627 30.13C177.947 30.49 177.217 30.78 176.437 31C175.677 31.2 174.927 31.3 174.187 31.3ZM184.415 31V15.25H187.505V18.49L186.965 18.85C187.165 18.15 187.555 17.51 188.135 16.93C188.715 16.33 189.405 15.85 190.205 15.49C191.005 15.11 191.825 14.92 192.665 14.92C193.865 14.92 194.865 15.16 195.665 15.64C196.465 16.1 197.065 16.81 197.465 17.77C197.865 18.73 198.065 19.94 198.065 21.4V31H194.975V21.61C194.975 20.71 194.855 19.97 194.615 19.39C194.375 18.79 194.005 18.36 193.505 18.1C193.005 17.82 192.385 17.7 191.645 17.74C191.045 17.74 190.495 17.84 189.995 18.04C189.495 18.22 189.055 18.48 188.675 18.82C188.315 19.16 188.025 19.56 187.805 20.02C187.605 20.46 187.505 20.94 187.505 21.46V31H185.975C185.715 31 185.455 31 185.195 31C184.935 31 184.675 31 184.415 31ZM208.827 31.3C207.387 31.3 206.097 30.95 204.957 30.25C203.837 29.53 202.947 28.56 202.287 27.34C201.627 26.1 201.297 24.69 201.297 23.11C201.297 21.53 201.617 20.13 202.257 18.91C202.917 17.67 203.807 16.7 204.927 16C206.047 15.28 207.317 14.92 208.737 14.92C209.517 14.92 210.267 15.05 210.987 15.31C211.727 15.55 212.387 15.89 212.967 16.33C213.547 16.75 213.997 17.22 214.317 17.74C214.657 18.24 214.827 18.75 214.827 19.27L213.927 19.33V8.8H217.017V31H213.927V27.25H214.527C214.527 27.73 214.367 28.21 214.047 28.69C213.727 29.15 213.297 29.58 212.757 29.98C212.237 30.38 211.627 30.7 210.927 30.94C210.247 31.18 209.547 31.3 208.827 31.3ZM209.247 28.63C210.187 28.63 211.017 28.39 211.737 27.91C212.457 27.43 213.017 26.78 213.417 25.96C213.837 25.12 214.047 24.17 214.047 23.11C214.047 22.05 213.837 21.11 213.417 20.29C213.017 19.45 212.457 18.79 211.737 18.31C211.017 17.83 210.187 17.59 209.247 17.59C208.307 17.59 207.477 17.83 206.757 18.31C206.037 18.79 205.467 19.45 205.047 20.29C204.647 21.11 204.447 22.05 204.447 23.11C204.447 24.17 204.647 25.12 205.047 25.96C205.467 26.78 206.037 27.43 206.757 27.91C207.477 28.39 208.307 28.63 209.247 28.63ZM226.521 31.3C225.201 31.3 224.011 31.07 222.951 30.61C221.891 30.15 221.011 29.47 220.311 28.57L222.411 26.77C223.011 27.47 223.661 27.98 224.361 28.3C225.081 28.6 225.891 28.75 226.791 28.75C227.151 28.75 227.481 28.71 227.781 28.63C228.101 28.53 228.371 28.39 228.591 28.21C228.831 28.03 229.011 27.82 229.131 27.58C229.251 27.32 229.311 27.04 229.311 26.74C229.311 26.22 229.121 25.8 228.741 25.48C228.541 25.34 228.221 25.19 227.781 25.03C227.361 24.85 226.811 24.67 226.131 24.49C224.971 24.19 224.021 23.85 223.281 23.47C222.541 23.09 221.971 22.66 221.571 22.18C221.271 21.8 221.051 21.39 220.911 20.95C220.771 20.49 220.701 19.99 220.701 19.45C220.701 18.79 220.841 18.19 221.121 17.65C221.421 17.09 221.821 16.61 222.321 16.21C222.841 15.79 223.441 15.47 224.121 15.25C224.821 15.03 225.561 14.92 226.341 14.92C227.081 14.92 227.811 15.02 228.531 15.22C229.271 15.42 229.951 15.71 230.571 16.09C231.191 16.47 231.711 16.92 232.131 17.44L230.361 19.39C229.981 19.01 229.561 18.68 229.101 18.4C228.661 18.1 228.211 17.87 227.751 17.71C227.291 17.55 226.871 17.47 226.491 17.47C226.071 17.47 225.691 17.51 225.351 17.59C225.011 17.67 224.721 17.79 224.481 17.95C224.261 18.11 224.091 18.31 223.971 18.55C223.851 18.79 223.791 19.06 223.791 19.36C223.811 19.62 223.871 19.87 223.971 20.11C224.091 20.33 224.251 20.52 224.451 20.68C224.671 20.84 225.001 21.01 225.441 21.19C225.881 21.37 226.441 21.54 227.121 21.7C228.121 21.96 228.941 22.25 229.581 22.57C230.241 22.87 230.761 23.22 231.141 23.62C231.541 24 231.821 24.44 231.981 24.94C232.141 25.44 232.221 26 232.221 26.62C232.221 27.52 231.961 28.33 231.441 29.05C230.941 29.75 230.261 30.3 229.401 30.7C228.541 31.1 227.581 31.3 226.521 31.3Z" fill="#1D3A5F"/>
<path fill-rule="evenodd" clip-rule="evenodd" d="M29.7091 0H0.000244141L0.000502586 0.000244868V28.1481L12.5095 40V11.8519L12.5094 11.8518H42.2181L29.7091 0Z" fill="#E8F4FF"/>
<path fill-rule="evenodd" clip-rule="evenodd" d="M12.5089 40H42.2178L42.2176 39.9998L42.2176 11.8519L29.7086 5.34058e-05L29.7086 28.1481L29.7087 28.1482L-4.19617e-05 28.1482L12.5089 40Z" fill="url(#paint0_linear_241_828)"/>
</g>
<defs>
<linearGradient id="paint0_linear_241_828" x1="42.2178" y1="40" x2="-3.63153" y2="35.3439" gradientUnits="userSpaceOnUse">
<stop stop-color="#A07AF7"/>
<stop offset="1" stop-color="#55A0F0"/>
</linearGradient>
<clipPath id="clip0_241_828">
<rect width="236" height="40" fill="white"/>
</clipPath>
</defs>
</svg>
