<svg width="36" height="35" viewBox="0 0 36 35" fill="none" xmlns="http://www.w3.org/2000/svg">
<path d="M0.5 17.5C0.5 7.83502 8.33502 0 18 0C27.665 0 35.5 7.83502 35.5 17.5C35.5 27.165 27.665 35 18 35C8.33502 35 0.5 27.165 0.5 17.5Z" fill="#F4F4F4"/>
<path d="M21.0783 9.93378C20.9894 9.88903 20.9167 9.93426 20.9167 10.0343V22.3377L26.2655 25.0314C26.532 25.1656 26.7501 25.0298 26.7501 24.7297V12.8864C26.7501 12.8274 26.717 12.7735 26.6646 12.7471L21.0783 9.93378Z" fill="#32FC8D"/>
<path d="M15.0833 19.2699L20.8495 10.0087C20.9018 9.9247 21.0176 9.89205 21.1069 9.93617L26.6768 12.6888C26.7462 12.723 26.7709 12.8088 26.7303 12.874L20.9445 22.1665L15.0833 19.2699Z" fill="#0BE370"/>
<path d="M9.62865 9.99633C9.26467 9.81725 9.14135 9.94978 9.35463 10.2909L14.9418 19.2263L20.9167 22.1665L14.9804 12.6727C14.9552 12.6323 14.9189 12.5997 14.8759 12.5784L9.62865 9.99633Z" fill="#14C767"/>
<path d="M15.0833 24.7282C15.0833 25.0296 14.8652 25.1659 14.5987 25.0311L9.57308 22.4894C9.39538 22.3995 9.25 22.1616 9.25 21.9607V10.1532C9.25 9.95222 9.39538 9.86131 9.57308 9.95119L15.0114 12.7016C15.0555 12.7239 15.0833 12.7695 15.0833 12.8193V24.7282Z" fill="#00AB6C"/>
</svg>
