<svg width="38" height="24" viewBox="0 0 38 24" fill="none" xmlns="http://www.w3.org/2000/svg">
<path d="M12 14C13.1046 14 14 13.1046 14 12C14 10.8954 13.1046 10 12 10C10.8954 10 10 10.8954 10 12C10 13.1046 10.8954 14 12 14Z" fill="#A1AEBE"/>
<path d="M19 14C20.1046 14 21 13.1046 21 12C21 10.8954 20.1046 10 19 10C17.8954 10 17 10.8954 17 12C17 13.1046 17.8954 14 19 14Z" fill="#A1AEBE"/>
<path d="M26 14C27.1046 14 28 13.1046 28 12C28 10.8954 27.1046 10 26 10C24.8954 10 24 10.8954 24 12C24 13.1046 24.8954 14 26 14Z" fill="#A1AEBE"/>
<rect x="0.5" y="0.5" width="37" height="23" rx="5.5" stroke="#E3E6E9"/>
</svg>
