<svg width="16" height="16" viewBox="0 0 16 16" fill="none" xmlns="http://www.w3.org/2000/svg">
<path d="M15.1251 13.5649L12.7476 11.3149C12.2955 11.8969 11.7538 12.4033 11.1426 12.8149L13.5876 15.1399C13.6904 15.26 13.8175 15.3569 13.9605 15.4242C14.1036 15.4916 14.2592 15.5278 14.4173 15.5305C14.5753 15.5332 14.7322 15.5023 14.8774 15.44C15.0227 15.3776 15.153 15.2851 15.2599 15.1686C15.3668 15.0521 15.4477 14.9143 15.4974 14.7642C15.547 14.6141 15.5643 14.4552 15.548 14.298C15.5317 14.1408 15.4822 13.9888 15.4029 13.8521C15.3235 13.7154 15.216 13.597 15.0876 13.5049L15.1251 13.5649Z" fill="#566B87"/>
<path d="M7.35498 0.5C6.01996 0.5 4.71492 0.895881 3.60488 1.63758C2.49485 2.37928 1.62969 3.43349 1.1188 4.66689C0.607905 5.90029 0.474233 7.25749 0.734683 8.56686C0.995133 9.87623 1.63801 11.079 2.58201 12.023C3.52602 12.967 4.72875 13.6099 6.03812 13.8703C7.3475 14.1308 8.7047 13.9971 9.9381 13.4862C11.1715 12.9753 12.2257 12.1101 12.9674 11.0001C13.7091 9.89007 14.105 8.58502 14.105 7.25C14.105 5.45979 13.3938 3.7429 12.128 2.47703C10.8621 1.21116 9.1452 0.5 7.35498 0.5ZM7.35498 12.02C6.41337 12.02 5.49289 11.7409 4.70986 11.2179C3.92684 10.6949 3.31641 9.95155 2.95573 9.08176C2.59505 8.21196 2.5003 7.25477 2.68345 6.33114C2.86661 5.40751 3.31945 4.5589 3.98474 3.89255C4.65004 3.22621 5.49794 2.77203 6.42128 2.58743C7.34462 2.40282 8.30196 2.49606 9.17232 2.85537C10.0427 3.21469 10.787 3.82394 11.3112 4.60614C11.8354 5.38835 12.116 6.30839 12.1175 7.25C12.1195 7.87633 11.9977 8.49688 11.7591 9.076C11.5206 9.65513 11.17 10.1814 10.7274 10.6247C10.2849 11.0679 9.75917 11.4193 9.18042 11.6588C8.60167 11.8982 7.98131 12.021 7.35498 12.02Z" fill="#566B87"/>
</svg>
