<svg width="20" height="20" viewBox="0 0 20 20" fill="none" xmlns="http://www.w3.org/2000/svg">
<path d="M12.1204 11.2144C11.6139 11.2692 11.1328 11.3018 10.6576 11.3754C8.78053 11.6597 6.99439 12.3735 5.43843 13.4613C4.38606 14.1934 3.45221 15.0827 2.66945 16.0979C2.62643 16.1534 2.58472 16.2101 2.53909 16.2642C2.47706 16.344 2.39175 16.4027 2.29495 16.432C2.19816 16.4613 2.09465 16.4598 1.99873 16.4278C1.89864 16.3979 1.81157 16.3351 1.7516 16.2496C1.69163 16.164 1.66226 16.0608 1.66824 15.9565C1.70409 15.3731 1.70996 14.7832 1.81035 14.2089C2.42828 10.6949 4.32055 8.07065 7.42587 6.32961C8.79472 5.56045 10.2848 5.15631 11.8544 5.05137C11.9352 5.0455 12.0154 5.03703 12.1204 5.0279C12.1204 4.96272 12.1204 4.89754 12.1204 4.83235C12.1275 4.37216 12.1158 3.91001 12.1497 3.45178C12.1777 3.07371 12.34 2.7491 12.7109 2.58093C12.8401 2.52146 12.982 2.49509 13.1239 2.5042C13.2658 2.5133 13.4032 2.55759 13.5237 2.63308C13.71 2.74285 13.8818 2.87532 14.0354 3.02743C15.2635 4.24418 16.4876 5.46637 17.7078 6.69398C18.5409 7.52767 18.5441 8.7101 17.7078 9.54966C16.741 10.5231 15.7708 11.493 14.7974 12.4594C14.5217 12.7358 14.2571 13.0252 13.9644 13.282C13.7812 13.4488 13.5712 13.5835 13.3432 13.6803C12.9136 13.8491 12.488 13.6575 12.2768 13.2468C12.1464 12.9939 12.1197 12.7195 12.1184 12.4418C12.1184 12.0449 12.1204 11.6499 12.1204 11.2144ZM13.1164 3.50783C13.1085 3.65058 13.0987 3.74705 13.0981 3.84418C13.0981 4.37542 13.0981 4.90666 13.0981 5.4379C13.0981 5.8101 12.9104 5.99522 12.5382 5.99783C11.6439 6.00369 10.76 6.10734 9.90804 6.37393C6.24649 7.51725 3.91598 9.94162 2.9165 13.6471C2.84676 13.9045 2.8083 14.1685 2.7555 14.4325C2.81307 14.4166 2.86487 14.3844 2.90476 14.34C5.56489 11.6831 8.76669 10.3019 12.5336 10.2497C12.9078 10.2445 13.0981 10.4303 13.0988 10.8018C13.0988 11.3383 13.0988 11.8747 13.0988 12.4118C13.0988 12.5057 13.1111 12.5996 13.1209 12.7345C13.2226 12.6406 13.2956 12.5787 13.3627 12.5109C14.5752 11.3003 15.7871 10.0892 16.9987 8.87762C17.4751 8.40113 17.4764 7.84251 16.9987 7.36406C15.7845 6.14731 14.5691 4.93208 13.3523 3.71837C13.2878 3.65319 13.2154 3.59648 13.1164 3.50588V3.50783Z" fill="white" stroke="white" stroke-width="0.3"/>
</svg>
