<svg width="16" height="13" viewBox="0 0 16 13" fill="none" xmlns="http://www.w3.org/2000/svg">
<path d="M9.90832 8.09274C9.45249 8.14202 9.01955 8.17136 8.59188 8.23765C6.90248 8.49345 5.29495 9.13589 3.89459 10.1149C2.94746 10.7739 2.10699 11.5742 1.40251 12.4879C1.36379 12.5378 1.32625 12.5888 1.28518 12.6375C1.22935 12.7094 1.15258 12.7622 1.06546 12.7886C0.97834 12.8149 0.885184 12.8136 0.798853 12.7848C0.708779 12.7578 0.630415 12.7013 0.57644 12.6244C0.522465 12.5474 0.496032 12.4545 0.501419 12.3606C0.533685 11.8356 0.538968 11.3046 0.629311 10.7878C1.18545 7.62519 2.88849 5.26334 5.68328 3.6964C6.91524 3.00416 8.25632 2.64044 9.66897 2.54599C9.74171 2.54071 9.81387 2.53308 9.90832 2.52487C9.90832 2.4662 9.90832 2.40754 9.90832 2.34887C9.91477 1.9347 9.90421 1.51877 9.93472 1.10635C9.95994 0.766098 10.106 0.473947 10.4398 0.322592C10.5561 0.269074 10.6838 0.245341 10.8115 0.253535C10.9392 0.261728 11.0629 0.30159 11.1714 0.369524C11.339 0.468324 11.4937 0.587542 11.6319 0.724446C12.7371 1.81952 13.8389 2.91949 14.9371 4.02434C15.6868 4.77466 15.6897 5.83884 14.9371 6.59445C14.0669 7.47051 13.1937 8.34344 12.3177 9.21324C12.0695 9.46198 11.8313 9.72245 11.5679 9.95359C11.4031 10.1037 11.2141 10.2249 11.0089 10.312C10.6223 10.464 10.2392 10.2915 10.0491 9.92191C9.93178 9.69429 9.90773 9.44731 9.90656 9.1974C9.90656 8.84013 9.90832 8.48462 9.90832 8.09274ZM10.8047 1.15681C10.7977 1.28528 10.7889 1.3721 10.7883 1.45952C10.7883 1.93763 10.7883 2.41575 10.7883 2.89387C10.7883 3.22885 10.6193 3.39545 10.2844 3.3978C9.47948 3.40308 8.68398 3.49636 7.91724 3.7363C4.62184 4.76528 2.52438 6.94722 1.62485 10.2821C1.56208 10.5138 1.52747 10.7514 1.47995 10.989C1.53177 10.9747 1.57838 10.9457 1.61429 10.9057C4.0084 8.51455 6.89002 7.27144 10.2803 7.22451C10.617 7.21981 10.7883 7.38701 10.7889 7.7214C10.7889 8.20421 10.7889 8.68702 10.7889 9.17042C10.7889 9.25489 10.8 9.33937 10.8088 9.46081C10.9003 9.37633 10.966 9.3206 11.0265 9.25959C12.1176 8.16999 13.2084 7.07999 14.2988 5.98961C14.7276 5.56077 14.7288 5.05801 14.2988 4.62741C13.2061 3.53234 12.1122 2.43863 11.0171 1.34629C10.959 1.28763 10.8939 1.23659 10.8047 1.15505V1.15681Z" fill="#566B87" stroke="#566B87" stroke-width="0.3"/>
</svg>
