<svg width="36" height="35" viewBox="0 0 36 35" fill="none" xmlns="http://www.w3.org/2000/svg">
<path d="M0.5 17.5C0.5 7.83502 8.33502 0 18 0C27.665 0 35.5 7.83502 35.5 17.5C35.5 27.165 27.665 35 18 35C8.33502 35 0.5 27.165 0.5 17.5Z" fill="#55ACEE"/>
<path d="M17.4759 14.2242L17.5126 14.8298L16.9006 14.7556C14.6727 14.4714 12.7264 13.5075 11.0739 11.8886L10.266 11.0853L10.0579 11.6785C9.61723 13.0008 9.89877 14.3972 10.8168 15.3364C11.3065 15.8555 11.1963 15.9296 10.3517 15.6207C10.0579 15.5218 9.80084 15.4477 9.77636 15.4847C9.69067 15.5712 9.98445 16.6958 10.217 17.1407C10.5353 17.7586 11.1841 18.3641 11.894 18.7225L12.4938 19.0067L11.7839 19.0191C11.0984 19.0191 11.0739 19.0315 11.1473 19.291C11.3922 20.0942 12.3592 20.9469 13.4364 21.3177L14.1953 21.5772L13.5343 21.9727C12.555 22.5411 11.4044 22.8624 10.2538 22.8871C9.70291 22.8995 9.25 22.9489 9.25 22.986C9.25 23.1096 10.7434 23.8016 11.6125 24.0735C14.2198 24.8768 17.3167 24.5307 19.6425 23.159C21.295 22.1827 22.9476 20.2425 23.7187 18.3641C24.1349 17.3631 24.5511 15.5342 24.5511 14.6567C24.5511 14.0883 24.5878 14.0141 25.2733 13.3344C25.6773 12.939 26.0567 12.5065 26.1302 12.3829C26.2526 12.1481 26.2403 12.1481 25.6161 12.3582C24.5756 12.7289 24.4287 12.6795 24.9428 12.1234C25.3223 11.7279 25.7752 11.0112 25.7752 10.8011C25.7752 10.764 25.5916 10.8258 25.3835 10.937C25.1632 11.0606 24.6735 11.246 24.3063 11.3572L23.6453 11.5673L23.0455 11.1594C22.715 10.937 22.2498 10.6898 22.005 10.6157C21.3807 10.4427 20.4259 10.4674 19.8628 10.6651C18.3327 11.2212 17.3657 12.6548 17.4759 14.2242Z" fill="white"/>
</svg>
