<svg width="24" height="24" viewBox="0 0 24 24" fill="none" xmlns="http://www.w3.org/2000/svg">
<g clip-path="url(#clip0_220_15404)">
<path d="M23.9997 19.0506C23.9432 19.3844 23.9036 19.7237 23.8187 20.0518C23.5407 21.189 22.8864 22.1989 21.9621 22.9177C21.0378 23.6364 19.8977 24.0218 18.7268 24.0113C14.2006 24.0113 9.71968 24.0113 5.21615 24.0113C3.95444 24.0139 2.73494 23.5572 1.7854 22.7265C0.835871 21.8959 0.221244 20.7481 0.0563173 19.4975C0.0177735 19.2543 -0.00114652 19.0084 -0.000259796 18.7622C-0.000259796 17.2538 -0.000259796 15.7454 -0.000259796 14.2371C-0.0093277 13.9824 0.0678635 13.7321 0.21881 13.5268C0.369756 13.3215 0.585616 13.1731 0.831423 13.1058C0.995381 13.0642 1.16677 13.0616 1.33195 13.0979C1.49713 13.1343 1.65153 13.2088 1.78285 13.3153C1.91417 13.4219 2.01879 13.5577 2.08837 13.7118C2.15794 13.8659 2.19056 14.0342 2.18362 14.2031C2.18362 15.7021 2.18362 17.201 2.18362 18.7282C2.17149 19.4278 2.40219 20.1099 2.83647 20.6585C3.27074 21.2072 3.88174 21.5884 4.56551 21.7374C4.79718 21.7923 5.03465 21.8189 5.27272 21.8166C9.75363 21.8166 14.2326 21.8166 18.7098 21.8166C19.1173 21.8242 19.5223 21.7498 19.9004 21.5977C20.2786 21.4457 20.6223 21.219 20.9111 20.9314C21.1999 20.6438 21.4278 20.301 21.5813 19.9234C21.7348 19.5459 21.8107 19.1414 21.8046 18.7339C21.8046 17.2293 21.8046 15.719 21.8046 14.2088C21.7988 13.9706 21.8716 13.7371 22.0117 13.5443C22.1517 13.3515 22.3514 13.2102 22.5797 13.142C22.8081 13.0738 23.0525 13.0826 23.2754 13.1671C23.4983 13.2515 23.6872 13.4068 23.813 13.6092C23.8844 13.7522 23.9468 13.8996 23.9997 14.0504V19.0506Z" fill="white"/>
<path d="M12.1469 0C12.4844 0.120666 12.7834 0.32968 13.0125 0.605232L19.1964 6.78765C19.3222 6.89724 19.4239 7.03175 19.495 7.18267C19.5661 7.33359 19.6051 7.49763 19.6094 7.66439C19.6038 7.86771 19.5416 8.06543 19.4296 8.23525C19.3176 8.40507 19.1604 8.54024 18.9757 8.62551C18.791 8.71079 18.5861 8.74277 18.3842 8.71787C18.1823 8.69297 17.9914 8.61216 17.8329 8.48456C17.7537 8.42234 17.6858 8.34315 17.6123 8.27528L13.335 3.95946C13.2757 3.88602 13.2245 3.80637 13.1823 3.72189L13.0804 3.77846V17.2972C13.1059 17.4443 13.101 17.5951 13.0658 17.7403C13.0307 17.8854 12.9662 18.0218 12.8762 18.141C12.7863 18.2602 12.6728 18.3597 12.5429 18.4333C12.4129 18.5069 12.2693 18.5531 12.1208 18.569C11.9722 18.5849 11.8221 18.5701 11.6795 18.5257C11.5369 18.4812 11.4049 18.408 11.2918 18.3106C11.1786 18.2131 11.0867 18.0934 11.0216 17.959C10.9566 17.8246 10.9198 17.6783 10.9135 17.5291C10.9135 17.4103 10.9135 17.2915 10.9135 17.1728V3.75018L10.6759 3.95946L6.30251 8.33184C6.17416 8.48043 6.0083 8.59187 5.82221 8.65455C5.63612 8.71722 5.43662 8.72884 5.24451 8.68819C5.06144 8.64899 4.89161 8.56314 4.7515 8.43899C4.61138 8.31483 4.50575 8.15658 4.44484 7.97958C4.38393 7.80258 4.36981 7.61284 4.40385 7.42878C4.43789 7.24472 4.51895 7.07258 4.63914 6.92906C4.69879 6.8571 4.76304 6.78908 4.8315 6.72543L10.9531 0.605232C11.1885 0.326336 11.4957 0.117054 11.8414 0L12.1469 0Z" fill="white"/>
</g>
<defs>
<clipPath id="clip0_220_15404">
<rect width="24" height="24" fill="white"/>
</clipPath>
</defs>
</svg>
