<svg width="20" height="20" viewBox="0 0 20 20" fill="none" xmlns="http://www.w3.org/2000/svg">
<path d="M13.2001 2.22533C13.8085 2.23077 14.41 2.35602 14.97 2.59391C15.5301 2.83181 16.0378 3.17769 16.4642 3.61181C16.8906 4.04592 17.2273 4.55978 17.4551 5.12403C17.6828 5.68827 17.7972 6.29186 17.7917 6.90033V13.1003C17.7972 13.7088 17.6828 14.3124 17.4551 14.8766C17.2273 15.4409 16.8906 15.9547 16.4642 16.3888C16.0378 16.823 15.5301 17.1688 14.97 17.4067C14.41 17.6446 13.8085 17.7699 13.2001 17.7753H6.80008C6.19162 17.7699 5.59018 17.6446 5.03012 17.4067C4.47006 17.1688 3.96235 16.823 3.53597 16.3888C3.10959 15.9547 2.77289 15.4409 2.54511 14.8766C2.31733 14.3124 2.20292 13.7088 2.20841 13.1003V6.90033C2.20292 6.29186 2.31733 5.68827 2.54511 5.12403C2.77289 4.55978 3.10959 4.04592 3.53597 3.61181C3.96235 3.17769 4.47006 2.83181 5.03012 2.59391C5.59018 2.35602 6.19162 2.23077 6.80008 2.22533H13.2001ZM11.7584 8.33366H12.6834L10.7834 10.4087C10.762 10.417 10.7382 10.417 10.7167 10.4087C10.7089 10.4124 10.7004 10.4143 10.6917 10.4143C10.6831 10.4143 10.6746 10.4124 10.6667 10.4087L9.46675 9.43366C9.24394 9.2566 8.96801 9.15972 8.68341 9.15866C8.51636 9.15744 8.35088 9.19088 8.1974 9.25686C8.04393 9.32284 7.9058 9.41993 7.79175 9.54199L5.92508 11.4503C5.81714 11.5622 5.75681 11.7115 5.75681 11.867C5.75681 12.0224 5.81714 12.1718 5.92508 12.2837C5.97815 12.3412 6.04257 12.3872 6.11429 12.4186C6.186 12.45 6.26345 12.4663 6.34175 12.4663C6.42005 12.4663 6.4975 12.45 6.56921 12.4186C6.64093 12.3872 6.70535 12.3412 6.75841 12.2837L8.62508 10.342C8.64401 10.3356 8.66449 10.3356 8.68341 10.342H8.73341L9.94175 11.317C10.1581 11.5007 10.4329 11.6012 10.7167 11.6003C10.8895 11.5993 11.0601 11.5625 11.2179 11.4922C11.3756 11.4219 11.5171 11.3197 11.6334 11.192L13.4334 9.16699V10.0003C13.4334 10.0769 13.4485 10.1528 13.4778 10.2236C13.5071 10.2943 13.5501 10.3586 13.6043 10.4128C13.6584 10.467 13.7227 10.5099 13.7935 10.5393C13.8643 10.5686 13.9401 10.5837 14.0167 10.5837C14.0934 10.5837 14.1692 10.5686 14.24 10.5393C14.3108 10.5099 14.3751 10.467 14.4292 10.4128C14.4834 10.3586 14.5264 10.2943 14.5557 10.2236C14.585 10.1528 14.6001 10.0769 14.6001 10.0003V7.70033C14.6012 7.62262 14.587 7.54547 14.5582 7.47326C14.5295 7.40105 14.4869 7.33521 14.4327 7.2795C14.3785 7.22378 14.3139 7.17928 14.2425 7.14854C14.1712 7.11779 14.0944 7.10141 14.0167 7.10033H11.7584C11.6125 7.11761 11.4781 7.18781 11.3805 7.29763C11.2829 7.40745 11.229 7.54925 11.229 7.69616C11.229 7.84306 11.2829 7.98487 11.3805 8.09469C11.4781 8.2045 11.6125 8.27471 11.7584 8.29199M13.2001 1.04199H6.80008C5.26602 1.06172 3.80148 1.685 2.72369 2.77683C1.6459 3.86866 1.04162 5.34114 1.04175 6.87533V13.0753C1.04162 14.6095 1.6459 16.082 2.72369 17.1738C3.80148 18.2657 5.26602 18.8889 6.80008 18.9087H13.2001C14.7341 18.8889 16.1987 18.2657 17.2765 17.1738C18.3543 16.082 18.9585 14.6095 18.9584 13.0753V6.90033C18.9585 5.36614 18.3543 3.89366 17.2765 2.80183C16.1987 1.71 14.7341 1.08672 13.2001 1.06699V1.04199Z" fill="#566B87"/>
</svg>
