<svg width="18" height="18" viewBox="0 0 18 18" fill="none" xmlns="http://www.w3.org/2000/svg">
<path d="M9.75 8.92502H5.25C4.9425 8.92502 4.6875 8.67002 4.6875 8.36252C4.6875 8.05502 4.9425 7.80002 5.25 7.80002H9.75C10.0575 7.80002 10.3125 8.05502 10.3125 8.36252C10.3125 8.67002 10.0575 8.92502 9.75 8.92502Z" fill="url(#paint0_linear_1_3)"/>
<path d="M1.5 8.92506C1.1925 8.92506 0.9375 8.67006 0.9375 8.36256V4.89757C0.9375 3.06007 2.43 1.56757 4.2675 1.56757H8.4825C10.41 1.56757 11.8125 2.85006 11.8125 4.61256C11.8125 4.92006 11.5575 5.17506 11.25 5.17506C10.9425 5.17506 10.6875 4.92006 10.6875 4.61256C10.6875 3.29256 9.54 2.69257 8.4825 2.69257H4.2675C3.0525 2.69257 2.0625 3.68257 2.0625 4.89757V8.36256C2.0625 8.67756 1.8075 8.92506 1.5 8.92506Z" fill="url(#paint1_linear_1_3)"/>
<path d="M12 16.425H4.5C2.535 16.425 0.9375 14.8275 0.9375 12.8625V7.61252C0.9375 5.64752 2.535 4.05002 4.5 4.05002H12C13.965 4.05002 15.5625 5.64752 15.5625 7.61252V8.69998C15.5625 9.00748 15.3075 9.26248 15 9.26248H14.19C13.9275 9.26248 13.6875 9.35998 13.515 9.53998L13.5075 9.54749C13.26 9.79499 13.1625 10.14 13.2525 10.4775C13.365 10.8975 13.8075 11.205 14.3025 11.205H15C15.3075 11.205 15.5625 11.46 15.5625 11.7675V12.855C15.5625 14.8275 13.965 16.425 12 16.425ZM4.5 5.17502C3.1575 5.17502 2.0625 6.27002 2.0625 7.61252V12.8625C2.0625 14.205 3.1575 15.3 4.5 15.3H12C13.3425 15.3 14.4375 14.205 14.4375 12.8625V12.3375H14.3025C13.29 12.3375 12.4125 11.7 12.165 10.7775C11.97 10.05 12.18 9.27749 12.7125 8.75249C13.1025 8.35499 13.6275 8.13748 14.19 8.13748H14.4375V7.61252C14.4375 6.27002 13.3425 5.17502 12 5.17502H4.5V5.17502Z" fill="url(#paint2_linear_1_3)"/>
<path d="M15.7274 12.3375H14.2799C13.1474 12.3375 12.1874 11.4975 12.0974 10.4175C12.0374 9.79501 12.2624 9.18748 12.7124 8.74498C13.0874 8.35498 13.6199 8.13748 14.1824 8.13748H15.7199C16.4549 8.13748 17.0549 8.73 17.0549 9.465V11.01C17.0624 11.745 16.4624 12.3375 15.7274 12.3375ZM14.1899 9.26248C13.9274 9.26248 13.6874 9.35998 13.5149 9.53998C13.2974 9.74998 13.1924 10.035 13.2224 10.32C13.2599 10.815 13.7399 11.2125 14.2799 11.2125H15.7274C15.8399 11.2125 15.9374 11.1225 15.9374 11.01V9.465C15.9374 9.3525 15.8399 9.26248 15.7274 9.26248H14.1899V9.26248Z" fill="url(#paint3_linear_1_3)"/>
<defs>
<linearGradient id="paint0_linear_1_3" x1="4.6875" y1="7.80002" x2="9.69938" y2="10.2112" gradientUnits="userSpaceOnUse">
<stop stop-color="#A07AF7"/>
<stop offset="1" stop-color="#55A0F0"/>
</linearGradient>
<linearGradient id="paint1_linear_1_3" x1="0.9375" y1="1.56757" x2="12.6332" y2="3.2309" gradientUnits="userSpaceOnUse">
<stop stop-color="#A07AF7"/>
<stop offset="1" stop-color="#55A0F0"/>
</linearGradient>
<linearGradient id="paint2_linear_1_3" x1="0.9375" y1="4.05002" x2="16.7795" y2="5.85143" gradientUnits="userSpaceOnUse">
<stop stop-color="#A07AF7"/>
<stop offset="1" stop-color="#55A0F0"/>
</linearGradient>
<linearGradient id="paint3_linear_1_3" x1="12.0879" y1="8.13748" x2="17.4682" y2="8.74971" gradientUnits="userSpaceOnUse">
<stop stop-color="#A07AF7"/>
<stop offset="1" stop-color="#55A0F0"/>
</linearGradient>
</defs>
</svg>
