<svg width="36" height="35" viewBox="0 0 36 35" fill="none" xmlns="http://www.w3.org/2000/svg">
<path d="M0.5 17.5C0.5 7.83502 8.33502 0 18 0C27.665 0 35.5 7.83502 35.5 17.5C35.5 27.165 27.665 35 18 35C8.33502 35 0.5 27.165 0.5 17.5Z" fill="#FF0000"/>
<path d="M26.9433 13.1786C26.7287 12.3539 26.0961 11.7044 25.2929 11.484C23.8373 11.0835 18.0001 11.0835 18.0001 11.0835C18.0001 11.0835 12.1628 11.0835 10.7071 11.484C9.90394 11.7044 9.2714 12.3539 9.05673 13.1786C8.66675 14.6732 8.66675 17.7918 8.66675 17.7918C8.66675 17.7918 8.66675 20.9103 9.05673 22.4051C9.2714 23.2298 9.90394 23.8792 10.7071 24.0997C12.1628 24.5002 18.0001 24.5002 18.0001 24.5002C18.0001 24.5002 23.8373 24.5002 25.2929 24.0997C26.0961 23.8792 26.7287 23.2298 26.9433 22.4051C27.3334 20.9103 27.3334 17.7918 27.3334 17.7918C27.3334 17.7918 27.3334 14.6732 26.9433 13.1786Z" fill="white"/>
<path d="M16.25 20.9998V15.1665L20.9167 18.0833L16.25 20.9998Z" fill="#FF0000"/>
</svg>
