<svg width="180" height="161" viewBox="0 0 180 161" fill="none" xmlns="http://www.w3.org/2000/svg">
<path d="M134.778 98.3C139.178 90.7 146.278 90.7 150.678 98.3L178.078 146.4C182.478 154 178.878 160.2 170.078 160.2H114.878C106.178 160.2 102.578 154 106.878 146.4L134.778 98.3ZM81.7779 5.7C86.1779 -1.9 93.1779 -1.9 97.5779 5.7L103.678 16.7L118.078 42C121.578 49.2 121.578 57.7 118.078 64.9L69.7779 148.6C65.3779 155.4 58.0779 159.7 49.9779 160.2H9.87789C1.07789 160.2 -2.52211 154.1 1.87789 146.4L81.7779 5.7Z" fill="#C8EBF8"/>
</svg>
