<svg width="24" height="24" viewBox="0 0 24 24" fill="none" xmlns="http://www.w3.org/2000/svg">
<path d="M21.26 6.36995H16.82C16.7215 6.37126 16.6242 6.39195 16.5337 6.43085C16.4432 6.46975 16.3613 6.5261 16.2925 6.59667C16.2238 6.66725 16.1697 6.75067 16.1332 6.84217C16.0967 6.93367 16.0786 7.03146 16.08 7.12995C16.077 7.22963 16.0948 7.32884 16.1323 7.42128C16.1697 7.51371 16.2259 7.59737 16.2974 7.66694C16.3688 7.73651 16.4539 7.79048 16.5473 7.82543C16.6407 7.86037 16.7404 7.87553 16.84 7.86995H19.23L14.13 12.87L10.22 9.12995C10.0738 8.98461 9.87607 8.90303 9.66996 8.90303C9.46384 8.90303 9.26611 8.98461 9.11996 9.12995L2.27996 15.88C2.13337 16.0295 2.05127 16.2305 2.05127 16.44C2.05127 16.6494 2.13337 16.8504 2.27996 17C2.43352 17.1467 2.63752 17.2291 2.84996 17.2299C2.95089 17.2305 3.05087 17.2103 3.14373 17.1708C3.2366 17.1312 3.32039 17.0731 3.38996 17L9.67996 10.81L13.59 14.54C13.7374 14.6829 13.9346 14.7629 14.14 14.7629C14.3453 14.7629 14.5426 14.6829 14.69 14.54L20.5 8.87995V11.56C20.4999 11.7571 20.5776 11.9464 20.7161 12.0868C20.8546 12.2271 21.0428 12.3073 21.24 12.31C21.4371 12.31 21.6264 12.2323 21.7668 12.0938C21.9071 11.9553 21.9873 11.7671 21.99 11.57L22 7.12995C21.9982 6.92848 21.9195 6.73531 21.78 6.58995C21.7133 6.51918 21.6327 6.46307 21.5431 6.4252C21.4536 6.38732 21.3572 6.3685 21.26 6.36995Z" fill="#A07AF7"/>
</svg>
