<svg width="18" height="18" viewBox="0 0 18 18" fill="none" xmlns="http://www.w3.org/2000/svg">
<path d="M9.75 8.92505H5.25C4.9425 8.92505 4.6875 8.67005 4.6875 8.36255C4.6875 8.05505 4.9425 7.80005 5.25 7.80005H9.75C10.0575 7.80005 10.3125 8.05505 10.3125 8.36255C10.3125 8.67005 10.0575 8.92505 9.75 8.92505Z" fill="#566B87"/>
<path d="M1.5 8.92513C1.1925 8.92513 0.9375 8.67013 0.9375 8.36263V4.89763C0.9375 3.06013 2.43 1.56763 4.2675 1.56763H8.4825C10.41 1.56763 11.8125 2.85013 11.8125 4.61263C11.8125 4.92013 11.5575 5.17513 11.25 5.17513C10.9425 5.17513 10.6875 4.92013 10.6875 4.61263C10.6875 3.29263 9.54 2.69263 8.4825 2.69263H4.2675C3.0525 2.69263 2.0625 3.68263 2.0625 4.89763V8.36263C2.0625 8.67763 1.8075 8.92513 1.5 8.92513Z" fill="#566B87"/>
<path d="M12 16.425H4.5C2.535 16.425 0.9375 14.8275 0.9375 12.8625V7.61255C0.9375 5.64755 2.535 4.05005 4.5 4.05005H12C13.965 4.05005 15.5625 5.64755 15.5625 7.61255V8.70001C15.5625 9.00751 15.3075 9.26251 15 9.26251H14.19C13.9275 9.26251 13.6875 9.36001 13.515 9.54001L13.5075 9.54752C13.26 9.79502 13.1625 10.14 13.2525 10.4775C13.365 10.8975 13.8075 11.205 14.3025 11.205H15C15.3075 11.205 15.5625 11.46 15.5625 11.7675V12.855C15.5625 14.8275 13.965 16.425 12 16.425ZM4.5 5.17505C3.1575 5.17505 2.0625 6.27005 2.0625 7.61255V12.8625C2.0625 14.205 3.1575 15.3 4.5 15.3H12C13.3425 15.3 14.4375 14.205 14.4375 12.8625V12.3375H14.3025C13.29 12.3375 12.4125 11.7 12.165 10.7775C11.97 10.05 12.18 9.27752 12.7125 8.75252C13.1025 8.35502 13.6275 8.13751 14.19 8.13751H14.4375V7.61255C14.4375 6.27005 13.3425 5.17505 12 5.17505H4.5Z" fill="#566B87"/>
<path d="M15.7274 12.3375H14.2799C13.1474 12.3375 12.1874 11.4975 12.0974 10.4175C12.0374 9.79498 12.2624 9.18745 12.7124 8.74495C13.0874 8.35495 13.6199 8.13745 14.1824 8.13745H15.7199C16.4549 8.13745 17.0549 8.72997 17.0549 9.46497V11.01C17.0624 11.745 16.4624 12.3375 15.7274 12.3375ZM14.1899 9.26245C13.9274 9.26245 13.6874 9.35995 13.5149 9.53995C13.2974 9.74995 13.1924 10.035 13.2224 10.32C13.2599 10.815 13.7399 11.2125 14.2799 11.2125H15.7274C15.8399 11.2125 15.9374 11.1225 15.9374 11.01V9.46497C15.9374 9.35247 15.8399 9.26245 15.7274 9.26245H14.1899Z" fill="#566B87"/>
</svg>
